<?xml version="1.0" encoding="utf-8"?>
<!-- Generator: Adobe Illustrator 27.5.0, SVG Export Plug-In . SVG Version: 6.00 Build 0)  -->
<svg version="1.1" xmlns="http://www.w3.org/2000/svg" xmlns:xlink="http://www.w3.org/1999/xlink" x="0px" y="0px"
	 viewBox="0 0 500 500" style="enable-background:new 0 0 500 500;" xml:space="preserve">
<g id="Floor">
	<path style="fill:#F5F5F5;" d="M412.791,257.181c-90.496-52.248-236.74-52.247-326.648,0.001
		c-89.913,52.252-89.437,136.962,1.059,189.21c90.502,52.251,236.746,52.25,326.659-0.002
		C503.77,394.143,503.293,309.432,412.791,257.181z"/>
</g>
<g id="Shadows_1_">
	<path style="fill:#E0E0E0;" d="M117.375,430.14c-5.363-3.096-14.03-3.096-19.359,0c-5.329,3.097-5.3,8.117,0.063,11.214
		c5.364,3.097,14.031,3.097,19.36,0C122.767,438.257,122.738,433.237,117.375,430.14z"/>
	<path style="fill:#E0E0E0;" d="M304.921,243.478l-13.579-7.828c-4.247-2.448-9.478-2.446-13.723,0.006l-75.333,43.658l-6.646-3.826
		l-54.533,31.906l6.295,3.625l-89.174,51.485c-3.051,1.762-3.051,6.165,0,7.926l13.723,7.923c4.251,2.454,9.488,2.452,13.737-0.005
		l89.121-51.542l10.415,5.999c8.492,4.891,18.946,4.886,27.432-0.014l32.036-18.496c4.071-2.35,4.067-8.227-0.007-10.572
		l-15.017-8.645l12.648-7.34l4.385-2.544l58.226-33.79C307.976,249.641,307.973,245.238,304.921,243.478z"/>
	<path style="fill:#E0E0E0;" d="M206.03,374.562c-15.652-9.037-40.947-9.037-56.498,0c-15.552,9.038-15.469,23.689,0.183,32.727
		c15.654,9.038,40.949,9.038,56.5,0C221.766,398.252,221.684,383.6,206.03,374.562z"/>
	<path style="fill:#E0E0E0;" d="M338.08,430.087c-14.184-8.189-37.105-8.189-51.196,0c-14.092,8.189-14.018,21.466,0.166,29.655
		c14.185,8.189,37.106,8.189,51.198,0C352.339,451.554,352.264,438.277,338.08,430.087z"/>
	<path style="fill:#E0E0E0;" d="M355.057,309.976c-14.618-8.44-38.242-8.44-52.765,0c-14.524,8.441-14.447,22.124,0.171,30.564
		c14.619,8.44,38.243,8.44,52.767,0C369.753,332.1,369.676,318.417,355.057,309.976z"/>
	<path style="fill:#E0E0E0;" d="M422.686,303.631c-5.735-3.311-15.003-3.311-20.701,0c-5.698,3.311-5.668,8.68,0.067,11.991
		c5.736,3.311,15.004,3.311,20.702,0C428.452,312.311,428.421,306.942,422.686,303.631z"/>
</g>
<g id="Windows">
	<g>
		<g>
			<g>
				<g>
					<g style="enable-background:new    ;">
						<g>
							<polygon style="fill:#F0F0F0;" points="116.964,73.415 113.977,71.68 114.152,178.205 117.139,179.941 							"/>
						</g>
						<g>
							<polygon style="fill:#F5F5F5;" points="117.139,179.941 114.152,178.205 79.767,197.943 82.754,199.679 							"/>
						</g>
						<g>
							<path style="fill:#E0E0E0;" d="M120.586,181.906l-41.258,23.706L79.131,91.189l41.258-23.706L120.586,181.906z
								 M82.754,199.679l34.385-19.738l-0.175-106.525L82.578,93.153L82.754,199.679"/>
						</g>
						<g>
							<polygon style="fill:#F5F5F5;" points="120.389,67.483 117.402,65.747 76.144,89.453 79.131,91.189 							"/>
						</g>
						<g>
							<polygon style="fill:#F0F0F0;" points="79.131,91.189 76.144,89.453 76.341,203.876 79.328,205.612 							"/>
						</g>
					</g>
				</g>
			</g>
			<g>
				<polygon style="fill:#F5F5F5;" points="117.132,106.593 114.146,104.857 82.578,123.014 82.578,126.468 				"/>
				<polygon style="fill:#E0E0E0;" points="117.133,106.593 117.132,106.593 117.133,106.593 82.578,126.468 82.578,130.413 
					117.139,110.556 				"/>
				
					<rect x="79.924" y="116.531" transform="matrix(0.8668 -0.4986 0.4986 0.8668 -44.804 65.3044)" style="fill:#E0E0E0;" width="39.862" height="0"/>
			</g>
		</g>
		<g>
			<g>
				<g>
					<g style="enable-background:new    ;">
						<g>
							<polygon style="fill:#F0F0F0;" points="79.131,95.157 76.144,93.421 76.319,199.946 79.306,201.682 							"/>
						</g>
						<g>
							<polygon style="fill:#F5F5F5;" points="79.306,201.682 76.319,199.946 41.934,219.684 44.921,221.42 							"/>
						</g>
						<g>
							<path style="fill:#E0E0E0;" d="M82.754,203.647l-41.258,23.706L41.298,112.93l41.258-23.706L82.754,203.647z M44.921,221.42
								l34.386-19.738L79.131,95.157l-34.385,19.738L44.921,221.42"/>
						</g>
						<g>
							<polygon style="fill:#F5F5F5;" points="82.556,89.224 79.569,87.488 38.311,111.194 41.298,112.93 							"/>
						</g>
						<g>
							<polygon style="fill:#F0F0F0;" points="41.298,112.93 38.311,111.194 38.508,225.617 41.495,227.353 							"/>
						</g>
					</g>
				</g>
			</g>
			<g>
				<polygon style="fill:#F5F5F5;" points="79.299,128.334 76.313,126.598 44.745,144.755 44.745,148.209 				"/>
				<polygon style="fill:#E0E0E0;" points="79.3,128.334 79.299,128.334 79.3,128.334 44.745,148.209 44.745,152.154 
					79.306,132.297 				"/>
				
					<rect x="42.091" y="138.272" transform="matrix(0.8668 -0.4986 0.4986 0.8668 -60.6817 49.3361)" style="fill:#E0E0E0;" width="39.862" height="0"/>
			</g>
		</g>
	</g>
	<g>
		<g>
			<g>
				<g>
					<g style="enable-background:new    ;">
						<g>
							<polygon style="fill:#F0F0F0;" points="209.214,20.286 206.227,18.551 206.402,125.076 209.389,126.812 							"/>
						</g>
						<g>
							<polygon style="fill:#F5F5F5;" points="209.389,126.812 206.402,125.076 172.016,144.814 175.003,146.55 							"/>
						</g>
						<g>
							<path style="fill:#E0E0E0;" d="M212.837,128.776l-41.258,23.706L171.381,38.06l41.258-23.706L212.837,128.776z
								 M175.003,146.55l34.386-19.738l-0.175-106.525l-34.385,19.738L175.003,146.55"/>
						</g>
						<g>
							<polygon style="fill:#F5F5F5;" points="212.639,14.354 209.652,12.618 168.394,36.324 171.381,38.06 							"/>
						</g>
						<g>
							<polygon style="fill:#F0F0F0;" points="171.381,38.06 168.394,36.324 168.591,150.747 171.578,152.482 							"/>
						</g>
					</g>
				</g>
			</g>
			<g>
				<polygon style="fill:#F5F5F5;" points="209.382,53.464 206.396,51.728 174.828,69.885 174.828,73.339 				"/>
				<polygon style="fill:#E0E0E0;" points="209.383,53.464 209.382,53.464 209.383,53.464 174.828,73.339 174.828,77.284 
					209.389,57.427 				"/>
				
					<rect x="172.174" y="63.401" transform="matrix(0.8668 -0.4986 0.4986 0.8668 -6.0302 104.2245)" style="fill:#E0E0E0;" width="39.862" height="0"/>
			</g>
		</g>
		<g>
			<g>
				<g>
					<g style="enable-background:new    ;">
						<g>
							<polygon style="fill:#F0F0F0;" points="171.381,42.028 168.394,40.292 168.569,146.817 171.556,148.553 							"/>
						</g>
						<g>
							<polygon style="fill:#F5F5F5;" points="171.556,148.553 168.569,146.817 134.184,166.555 137.171,168.291 							"/>
						</g>
						<g>
							<path style="fill:#E0E0E0;" d="M175.003,150.518l-41.258,23.706l-0.198-114.423l41.258-23.706L175.003,150.518z
								 M137.171,168.291l34.386-19.738l-0.175-106.525l-34.385,19.738L137.171,168.291"/>
						</g>
						<g>
							<polygon style="fill:#F5F5F5;" points="174.806,36.095 171.819,34.359 130.561,58.065 133.548,59.801 							"/>
						</g>
						<g>
							<polygon style="fill:#F0F0F0;" points="133.548,59.801 130.561,58.065 130.758,172.488 133.745,174.223 							"/>
						</g>
					</g>
				</g>
			</g>
			<g>
				<polygon style="fill:#F5F5F5;" points="171.549,75.205 168.563,73.469 136.995,91.626 136.995,95.08 				"/>
				<polygon style="fill:#E0E0E0;" points="171.55,75.205 171.549,75.205 171.55,75.205 136.995,95.08 136.995,99.025 
					171.556,79.168 				"/>
				
					<rect x="134.341" y="85.142" transform="matrix(0.8668 -0.4986 0.4986 0.8668 -21.908 88.2562)" style="fill:#E0E0E0;" width="39.862" height="0"/>
			</g>
		</g>
	</g>
</g>
<g id="Pictures">
	<g>
		<g>
			<g>
				<polygon style="fill:none;" points="393.096,134.01 425.784,152.882 425.713,177.865 393.025,158.993 				"/>
				<polygon style="fill:#F0F0F0;" points="393.096,134.01 393.025,158.993 389.997,160.752 390.078,132.267 				"/>
				<polygon style="fill:#F5F5F5;" points="425.713,177.865 425.703,181.367 389.997,160.752 393.025,158.993 				"/>
				<path style="fill:#E0E0E0;" d="M386.327,162.844l43.023,24.84l0.105-36.887l-43.023-24.84L386.327,162.844z M389.997,160.752
					l0.081-28.485l3.018,1.742l32.688,18.872l-0.071,24.983l-0.01,3.502L389.997,160.752z"/>
				<polygon style="fill:#F5F5F5;" points="386.431,125.957 389.459,124.197 432.482,149.037 429.455,150.796 				"/>
				<polygon style="fill:#F0F0F0;" points="432.482,149.037 432.378,185.924 429.35,187.684 429.455,150.796 				"/>
			</g>
			<g>
				<g style="enable-background:new    ;">
					<g>
						<polygon style="fill:#E0E0E0;" points="403.482,143.495 394.568,150.514 394.548,157.371 424.198,174.49 424.217,167.633 
							418.567,156.41 413.493,160.349 415.287,165.922 412.683,160.973 						"/>
					</g>
					<g>
						<path style="fill:#E0E0E0;" d="M413.221,146.951c-1.395-0.805-2.531-0.159-2.535,1.445c-0.005,1.604,1.124,3.557,2.519,4.363
							c1.396,0.806,2.531,0.159,2.535-1.445C415.744,149.711,414.617,147.757,413.221,146.951z"/>
					</g>
				</g>
			</g>
		</g>
		<g>
			<g>
				<polygon style="fill:none;" points="393.096,78.071 425.784,96.943 425.713,121.926 393.025,103.053 				"/>
				<polygon style="fill:#F0F0F0;" points="393.096,78.071 393.025,103.053 389.997,104.813 390.078,76.328 				"/>
				<polygon style="fill:#F5F5F5;" points="425.713,121.926 425.703,125.427 389.997,104.813 393.025,103.053 				"/>
				<path style="fill:#E0E0E0;" d="M386.327,106.905l43.023,24.84l0.104-36.887l-43.023-24.84L386.327,106.905z M389.997,104.813
					l0.081-28.485l3.018,1.743l32.688,18.872l-0.071,24.983l-0.01,3.502L389.997,104.813z"/>
				<polygon style="fill:#F5F5F5;" points="386.431,70.018 389.459,68.258 432.482,93.098 429.454,94.857 				"/>
				<polygon style="fill:#F0F0F0;" points="432.482,93.098 432.378,129.985 429.35,131.744 429.454,94.857 				"/>
			</g>
			<g>
				<g style="enable-background:new    ;">
					<g>
						<polygon style="fill:#E0E0E0;" points="403.482,87.556 394.567,94.575 394.548,101.432 424.198,118.55 424.217,111.693 
							418.566,100.47 413.493,104.409 415.287,109.983 412.683,105.034 						"/>
					</g>
					<g>
						<path style="fill:#E0E0E0;" d="M413.221,91.012c-1.396-0.806-2.531-0.159-2.535,1.445c-0.004,1.603,1.124,3.557,2.519,4.363
							c1.396,0.806,2.531,0.159,2.535-1.445C415.744,93.771,414.616,91.818,413.221,91.012z"/>
					</g>
				</g>
			</g>
		</g>
	</g>
</g>
<g id="Device">
	<g>
		<g>
			<g>
				<g>
					<path style="fill:#BA68C8;" d="M233.589,305.986L207.47,320.93c-7.642,4.373-17.032,4.358-24.661-0.039l-19.381-11.17
						c-2.298-1.324-3.715-3.773-3.719-6.426l-0.018-13.221l-4.042,2.337v11.492c0,3.099,1.654,5.961,4.339,7.509l23.011,13.262
						c7.511,4.329,16.757,4.344,24.281,0.038l26.309-15.053c3.928-2.248,5.523-6.524,4.798-10.434
						C237.887,301.918,236.297,304.436,233.589,305.986z"/>
					<path style="opacity:0.1;" d="M233.589,305.986L207.47,320.93c-7.642,4.373-17.032,4.358-24.661-0.039l-19.381-11.17
						c-2.298-1.324-3.715-3.773-3.719-6.426l-0.018-13.221l-4.042,2.337v11.492c0,3.099,1.654,5.961,4.339,7.509l23.011,13.262
						c7.511,4.329,16.757,4.344,24.281,0.038l26.309-15.053c3.928-2.248,5.523-6.524,4.798-10.434
						C237.887,301.918,236.297,304.436,233.589,305.986z"/>
					<path style="fill:#BA68C8;" d="M163.429,309.722l19.381,11.17c7.629,4.397,17.019,4.411,24.661,0.039l26.119-14.945
						c2.708-1.549,4.298-4.067,4.798-6.761c-0.488-2.628-2.013-5.091-4.622-6.656l-21.428-12.853
						c-2.611-1.566-4.209-4.387-4.209-7.432v-3.673v-6.535l-48.437,28l0.018,13.221
						C159.713,305.948,161.131,308.397,163.429,309.722z"/>
				</g>
				<g>
					<path style="opacity:0.4;" d="M163.429,309.722c-2.298-1.324-3.715-3.773-3.719-6.426l-0.018-13.221l-4.042,2.337v11.492
						c0,3.099,1.654,5.961,4.339,7.509l8.164,4.705v-3.673L163.429,309.722z"/>
					<path style="opacity:0.3;" d="M163.429,309.722l4.723,2.722v0l50.567-28.9l-6.382-3.828c-2.611-1.566-4.209-4.387-4.209-7.432
						v-3.673v-6.535l-48.437,28l0.018,13.221C159.713,305.948,161.131,308.397,163.429,309.722z"/>
				</g>
			</g>
			<g>
				<path style="fill:#FFA8A7;" d="M77.818,342.633v-0.006c-0.018-0.01-0.038-0.016-0.056-0.026L77.818,342.633z"/>
				<path style="fill:#BA68C8;" d="M75.52,337.805l-0.373-165.653c-0.013-4.701,3.293-10.435,7.391-12.801l205.91-118.578
					c2.034-1.174,3.88-1.293,5.224-0.54l-7.753-4.493l0.001,0.007c-1.357-0.86-3.267-0.789-5.386,0.435L74.624,154.76
					c-4.098,2.366-7.404,8.1-7.39,12.8l0.372,165.653c0.006,2.218,0.756,3.803,1.971,4.621l-0.001,0.001l0.009,0.005
					c0.133,0.089,0.271,0.169,0.415,0.239l7.646,4.453C76.338,341.749,75.527,340.118,75.52,337.805z"/>
				<path style="opacity:0.3;fill:#FFFFFF;" d="M285.919,35.74l0.001,0.007c-1.357-0.86-3.267-0.789-5.386,0.435L74.624,154.76
					c-2.277,1.315-4.308,3.671-5.662,6.311l7.921,4.579c1.354-2.635,3.382-4.986,5.655-6.299l205.91-118.578
					c2.034-1.174,3.88-1.293,5.224-0.54L285.919,35.74z"/>
				<path style="opacity:0.2;" d="M67.233,167.56l0.372,165.653c0.006,2.218,0.756,3.803,1.971,4.621l-0.001,0.001l0.009,0.005
					c0.133,0.089,0.271,0.169,0.415,0.239l7.646,4.453c-1.308-0.783-2.12-2.415-2.126-4.727l-0.373-165.653
					c-0.006-2.092,0.649-4.388,1.735-6.502l-7.921-4.579C67.879,163.181,67.228,165.472,67.233,167.56z"/>
				<path style="fill:#FFA8A7;" d="M293.76,40.284l-0.038-0.022c0.013,0.007,0.023,0.017,0.036,0.025L293.76,40.284z"/>
				<path style="fill:#BA68C8;" d="M295.886,45.012c-0.007-2.313-0.82-3.943-2.129-4.726c-0.012-0.008-0.023-0.017-0.036-0.025
					c-0.017-0.009-0.033-0.019-0.049-0.028c-1.344-0.753-3.19-0.634-5.224,0.54L82.538,159.351c-4.098,2.366-7.404,8.1-7.391,12.801
					l0.373,165.653c0.007,2.313,0.818,3.944,2.126,4.727c0.039,0.023,0.077,0.046,0.116,0.068c0.018,0.01,0.038,0.016,0.056,0.026
					c1.336,0.703,3.145,0.57,5.141-0.582l205.909-118.578c4.091-2.362,7.404-8.1,7.39-12.801L295.886,45.012z M285.21,217.13
					L82.826,333.672l-0.361-161.542c-0.006-2.081,1.912-5.392,3.731-6.443L288.581,49.145l0.361,161.541
					C288.948,212.767,287.03,216.079,285.21,217.13z"/>
				<path style="fill:#BA68C8;" d="M288.581,49.145l-5.238,3.021l0.349,155.964c0.006,2.08-1.912,5.392-3.732,6.443L82.813,328.095
					l0.012,5.578L285.21,217.13c1.82-1.051,3.738-4.363,3.732-6.443L288.581,49.145z"/>
				<path style="opacity:0.3;" d="M288.581,49.145l-5.238,3.021l0.349,155.964c0.006,2.08-1.912,5.392-3.732,6.443L82.813,328.095
					l0.012,5.578L285.21,217.13c1.82-1.051,3.738-4.363,3.732-6.443L288.581,49.145z"/>
				<path style="fill:#455A64;" d="M283.692,208.13l-0.349-155.964L86.196,165.688c-1.819,1.051-3.737,4.362-3.731,6.443
					l0.348,155.964L279.96,214.573C281.78,213.522,283.698,210.21,283.692,208.13z"/>
			</g>
		</g>
	</g>
</g>
<g id="Window">
	<g>
		<g>
			<g>
				<g>
					<path style="fill:#BA68C8;" d="M106.72,346.177l-0.352-156.572c-0.013-4.443,3.112-9.863,6.985-12.099L307.974,65.429
						c1.923-1.11,3.667-1.223,4.938-0.51l-7.328-4.247l0,0.006c-1.282-0.813-3.088-0.745-5.091,0.411L105.872,173.167
						c-3.873,2.236-6.998,7.656-6.985,12.099l0.352,156.572c0.006,2.097,0.715,3.595,1.863,4.368l-0.001,0l0.008,0.005
						c0.126,0.084,0.256,0.16,0.392,0.226l7.227,4.209C107.493,349.905,106.726,348.364,106.72,346.177z"/>
					<path style="opacity:0.4;fill:#FFFFFF;" d="M305.584,60.672l0,0.006c-1.282-0.813-3.088-0.745-5.091,0.411L105.872,173.167
						c-2.152,1.243-4.072,3.47-5.352,5.965l7.487,4.328c1.28-2.49,3.196-4.712,5.345-5.953L307.974,65.429
						c1.923-1.11,3.667-1.223,4.938-0.51L305.584,60.672z"/>
				</g>
				<path style="opacity:0.3;fill:#FFFFFF;" d="M98.887,185.266l0.352,156.572c0.006,2.097,0.715,3.595,1.863,4.368l-0.001,0
					l0.008,0.005c0.126,0.084,0.256,0.16,0.392,0.226l7.227,4.209c-1.236-0.74-2.003-2.282-2.01-4.468l-0.352-156.572
					c-0.006-1.978,0.613-4.148,1.64-6.146l-7.487-4.328C99.498,181.127,98.882,183.292,98.887,185.266z"/>
			</g>
			<g>
				<path style="fill:#BA68C8;" d="M106.388,198.682l0.332,147.495c0.006,2.186,0.773,3.728,2.01,4.468
					c0.036,0.022,0.072,0.043,0.11,0.064c0.017,0.009,0.036,0.016,0.053,0.025c1.263,0.664,2.973,0.539,4.859-0.55l194.621-112.078
					c3.867-2.232,6.998-7.656,6.985-12.099l-0.332-147.741L106.388,198.682z"/>
				<path style="opacity:0.5;fill:#FFFFFF;" d="M106.388,198.682l0.332,147.495c0.006,2.186,0.773,3.728,2.01,4.468
					c0.036,0.022,0.072,0.043,0.11,0.064c0.017,0.009,0.036,0.016,0.053,0.025c1.263,0.664,2.973,0.539,4.859-0.55l194.621-112.078
					c3.867-2.232,6.998-7.656,6.985-12.099l-0.332-147.741L106.388,198.682z"/>
			</g>
			<g>
				<g>
					<g>
						<path style="fill:#BA68C8;" d="M306.952,88.084c1.803-1.041,3.275-0.207,3.281,1.87c0.006,2.077-1.457,4.605-3.26,5.646
							l-166.83,96.44c-1.803,1.041-3.275,0.207-3.281-1.87c-0.006-2.077,1.457-4.605,3.26-5.646L306.952,88.084z"/>
					</g>
					<g style="opacity:0.8;">
						<path style="fill:#FFFFFF;" d="M306.952,88.084c1.803-1.041,3.275-0.207,3.281,1.87c0.006,2.077-1.457,4.605-3.26,5.646
							l-166.83,96.44c-1.803,1.041-3.275,0.207-3.281-1.87c-0.006-2.077,1.457-4.605,3.26-5.646L306.952,88.084z"/>
					</g>
				</g>
				<g>
					<g>
						<g>
							<path style="fill:#BA68C8;" d="M115.616,200.368c0.079-0.046,0.158-0.059,0.221-0.029c0.134,0.063,0.145,0.297,0.021,0.523
								l-1.054,1.937l3.558-2.054c0.181-0.105,0.329-0.02,0.33,0.188c0.001,0.208-0.147,0.463-0.328,0.568l-3.558,2.054l1.062,0.716
								c0.125,0.082,0.115,0.328-0.018,0.546c-0.063,0.102-0.142,0.181-0.22,0.227c-0.091,0.052-0.18,0.063-0.243,0.018l-1.57-1.057
								c-0.03-0.024-0.05-0.048-0.063-0.081c-0.016-0.043-0.024-0.079-0.024-0.124c0-0.045,0.007-0.09,0.019-0.138
								c0.018-0.062,0.037-0.11,0.063-0.156l1.563-2.875C115.439,200.511,115.527,200.419,115.616,200.368z"/>
						</g>
						<g>
							<path style="fill:#BA68C8;" d="M124.599,195.182c0.089-0.052,0.178-0.062,0.243-0.019l1.57,1.057
								c0.028,0.025,0.048,0.05,0.063,0.081c0.014,0.044,0.022,0.08,0.022,0.125c0,0.045-0.008,0.091-0.019,0.138
								c-0.018,0.062-0.037,0.11-0.061,0.155l-1.562,2.875c-0.065,0.119-0.153,0.211-0.242,0.262
								c-0.079,0.046-0.16,0.058-0.223,0.029c-0.132-0.064-0.143-0.298-0.021-0.523l1.056-1.938l-3.558,2.054
								c-0.181,0.105-0.33,0.02-0.33-0.188c-0.001-0.208,0.147-0.463,0.328-0.568l3.558-2.054l-1.064-0.715
								c-0.123-0.083-0.113-0.329,0.018-0.546C124.44,195.306,124.519,195.228,124.599,195.182z"/>
						</g>
						<g>
							<path style="fill:#BA68C8;" d="M131.171,191.386c0.392-0.227,0.769-0.315,1.092-0.264c0.02-0.197,0.156-0.417,0.323-0.513
								c0.005-0.003,0.01-0.006,0.015-0.009c0.181-0.096,0.322-0.002,0.314,0.211l-0.027,0.841
								c-0.007,0.202-0.143,0.436-0.314,0.542l-0.717,0.45l-0.014,0.008c-0.175,0.101-0.319,0.028-0.328-0.171
								c-0.008-0.179,0.1-0.4,0.249-0.527c-0.184,0.006-0.383,0.067-0.591,0.187c-0.761,0.439-1.377,1.505-1.375,2.378
								c0.003,0.874,0.623,1.225,1.383,0.786c0.504-0.291,0.968-0.876,1.209-1.526c0.059-0.161,0.172-0.297,0.288-0.364
								c0.053-0.031,0.107-0.047,0.157-0.044c0.16,0.008,0.219,0.202,0.133,0.435c-0.356,0.961-1.039,1.824-1.785,2.255
								c-1.123,0.648-2.038,0.124-2.042-1.163C129.139,193.611,130.048,192.035,131.171,191.386z"/>
						</g>
					</g>
					<g style="opacity:0.7;">
						<g>
							<path style="fill:#FFFFFF;" d="M115.616,200.368c0.079-0.046,0.158-0.059,0.221-0.029c0.134,0.063,0.145,0.297,0.021,0.523
								l-1.054,1.937l3.558-2.054c0.181-0.105,0.329-0.02,0.33,0.188c0.001,0.208-0.147,0.463-0.328,0.568l-3.558,2.054l1.062,0.716
								c0.125,0.082,0.115,0.328-0.018,0.546c-0.063,0.102-0.142,0.181-0.22,0.227c-0.091,0.052-0.18,0.063-0.243,0.018l-1.57-1.057
								c-0.03-0.024-0.05-0.048-0.063-0.081c-0.016-0.043-0.024-0.079-0.024-0.124c0-0.045,0.007-0.09,0.019-0.138
								c0.018-0.062,0.037-0.11,0.063-0.156l1.563-2.875C115.439,200.511,115.527,200.419,115.616,200.368z"/>
						</g>
						<g>
							<path style="fill:#FFFFFF;" d="M124.599,195.182c0.089-0.052,0.178-0.062,0.243-0.019l1.57,1.057
								c0.028,0.025,0.048,0.05,0.063,0.081c0.014,0.044,0.022,0.08,0.022,0.125c0,0.045-0.008,0.091-0.019,0.138
								c-0.018,0.062-0.037,0.11-0.061,0.155l-1.562,2.875c-0.065,0.119-0.153,0.211-0.242,0.262
								c-0.079,0.046-0.16,0.058-0.223,0.029c-0.132-0.064-0.143-0.298-0.021-0.523l1.056-1.938l-3.558,2.054
								c-0.181,0.105-0.33,0.02-0.33-0.188c-0.001-0.208,0.147-0.463,0.328-0.568l3.558-2.054l-1.064-0.715
								c-0.123-0.083-0.113-0.329,0.018-0.546C124.44,195.306,124.519,195.228,124.599,195.182z"/>
						</g>
						<g>
							<path style="fill:#FFFFFF;" d="M131.171,191.386c0.392-0.227,0.769-0.315,1.092-0.264c0.02-0.197,0.156-0.417,0.323-0.513
								c0.005-0.003,0.01-0.006,0.015-0.009c0.181-0.096,0.322-0.002,0.314,0.211l-0.027,0.841
								c-0.007,0.202-0.143,0.436-0.314,0.542l-0.717,0.45l-0.014,0.008c-0.175,0.101-0.319,0.028-0.328-0.171
								c-0.008-0.179,0.1-0.4,0.249-0.527c-0.184,0.006-0.383,0.067-0.591,0.187c-0.761,0.439-1.377,1.505-1.375,2.378
								c0.003,0.874,0.623,1.225,1.383,0.786c0.504-0.291,0.968-0.876,1.209-1.526c0.059-0.161,0.172-0.297,0.288-0.364
								c0.053-0.031,0.107-0.047,0.157-0.044c0.16,0.008,0.219,0.202,0.133,0.435c-0.356,0.961-1.039,1.824-1.785,2.255
								c-1.123,0.648-2.038,0.124-2.042-1.163C129.139,193.611,130.048,192.035,131.171,191.386z"/>
						</g>
					</g>
				</g>
			</g>
			<g style="opacity:0.5;">
				<g>
					<path style="fill:#FFFFFF;" d="M118.548,288.788c-0.577,0-1.114-0.137-1.593-0.412c-1.131-0.651-1.757-1.98-1.762-3.743
						l-0.173-60.844c-0.01-3.43,2.41-7.623,5.395-9.345l72.991-42.141c1.544-0.891,3.021-1.02,4.158-0.367
						c1.131,0.65,1.757,1.98,1.762,3.744l0.173,60.845c0.01,3.429-2.41,7.621-5.395,9.344l-72.991,42.141
						C120.218,288.527,119.345,288.788,118.548,288.788z M195.969,172.508c-0.624,0-1.33,0.217-2.072,0.646l-72.991,42.141
						c-2.712,1.566-4.912,5.375-4.904,8.491l0.173,60.844c0.004,1.397,0.455,2.424,1.27,2.894c0.821,0.472,1.949,0.343,3.176-0.365
						l72.991-42.141c2.712-1.567,4.912-5.376,4.904-8.492l-0.173-60.844c-0.004-1.399-0.454-2.427-1.269-2.896
						C196.749,172.6,196.377,172.508,195.969,172.508z"/>
				</g>
			</g>
			<g>
				<g>
					<path style="fill:#FFFFFF;" d="M259.449,247.313c-0.244,0-0.474-0.059-0.677-0.175c-0.465-0.268-0.733-0.814-0.735-1.497
						l-0.294-103.839c-0.003-1.235,0.833-2.686,1.904-3.304l41.016-23.681c0.594-0.342,1.205-0.386,1.67-0.117
						c0.466,0.268,0.734,0.814,0.736,1.497l0.294,103.839c0.003,1.234-0.833,2.685-1.904,3.304l-41.016,23.681
						C260.107,247.215,259.765,247.313,259.449,247.313z M300.908,115.242l0.246,0.426l-41.017,23.68
						c-0.767,0.443-1.415,1.565-1.412,2.45l0.295,103.84c0.001,0.323,0.089,0.559,0.243,0.648c0.156,0.088,0.411,0.045,0.69-0.117
						l41.016-23.681c0.768-0.444,1.415-1.566,1.412-2.45L302.086,116.2c-0.001-0.324-0.089-0.56-0.244-0.648
						c-0.151-0.088-0.41-0.044-0.689,0.117L300.908,115.242z"/>
				</g>
			</g>
			<g>
				<g>
					<path style="fill:#BA68C8;" d="M156.627,273.103c1.52-0.878,2.755-0.174,2.759,1.572l0.092,32.397
						c0.005,1.744-1.222,3.871-2.742,4.749l-38.865,22.439c-1.52,0.878-2.755,0.171-2.76-1.573l-0.092-32.397
						c-0.005-1.747,1.221-3.871,2.742-4.749L156.627,273.103z"/>
				</g>
				<g style="opacity:0.2;">
					<path style="fill:#FFFFFF;" d="M156.627,273.103c1.52-0.878,2.755-0.174,2.759,1.572l0.092,32.397
						c0.005,1.744-1.222,3.871-2.742,4.749l-38.865,22.439c-1.52,0.878-2.755,0.171-2.76-1.573l-0.092-32.397
						c-0.005-1.747,1.221-3.871,2.742-4.749L156.627,273.103z"/>
				</g>
				<g>
					<path style="fill:#FFFFFF;" d="M156.918,275.235c0.084-0.049,0.168-0.052,0.221,0.001c0.092,0.089,0.065,0.301-0.056,0.477
						l-19.371,27.702l19.464,5.281c0.122,0.032,0.149,0.216,0.058,0.408c-0.054,0.117-0.136,0.207-0.22,0.255
						c-0.057,0.033-0.114,0.046-0.163,0.035l-19.601-5.319l-19.507,27.897c-0.049,0.068-0.106,0.121-0.163,0.154
						c-0.084,0.049-0.168,0.055-0.223,0.001c-0.09-0.088-0.065-0.301,0.058-0.475l19.371-27.702l-19.464-5.281
						c-0.124-0.034-0.149-0.216-0.061-0.409c0.054-0.115,0.138-0.208,0.223-0.257c0.057-0.033,0.114-0.046,0.163-0.032l19.601,5.319
						l19.507-27.897C156.804,275.321,156.861,275.267,156.918,275.235z"/>
				</g>
			</g>
			<g>
				<g>
					<path style="fill:#BA68C8;" d="M204.321,246.243c1.52-0.878,2.754-0.174,2.759,1.573l0.092,32.397
						c0.005,1.744-1.222,3.871-2.742,4.749L165.566,307.4c-1.52,0.878-2.755,0.171-2.759-1.573l-0.092-32.397
						c-0.005-1.747,1.221-3.871,2.742-4.749L204.321,246.243z"/>
				</g>
				<g style="opacity:0.2;">
					<path style="fill:#FFFFFF;" d="M204.321,246.243c1.52-0.878,2.754-0.174,2.759,1.573l0.092,32.397
						c0.005,1.744-1.222,3.871-2.742,4.749L165.566,307.4c-1.52,0.878-2.755,0.171-2.759-1.573l-0.092-32.397
						c-0.005-1.747,1.221-3.871,2.742-4.749L204.321,246.243z"/>
				</g>
				<g>
					<path style="fill:#FFFFFF;" d="M204.611,248.374c0.084-0.049,0.168-0.052,0.221,0c0.092,0.089,0.065,0.301-0.056,0.477
						l-19.371,27.702l19.464,5.281c0.122,0.032,0.149,0.216,0.058,0.408c-0.054,0.117-0.136,0.207-0.22,0.255
						c-0.057,0.033-0.114,0.046-0.163,0.035l-19.601-5.319l-19.507,27.897c-0.049,0.068-0.106,0.121-0.163,0.154
						c-0.084,0.049-0.168,0.055-0.223,0.001c-0.09-0.088-0.065-0.301,0.058-0.475l19.371-27.702l-19.464-5.281
						c-0.124-0.034-0.149-0.216-0.061-0.41c0.055-0.115,0.138-0.208,0.223-0.257c0.057-0.033,0.114-0.046,0.163-0.031l19.601,5.319
						l19.507-27.898C204.497,248.46,204.554,248.407,204.611,248.374z"/>
				</g>
			</g>
			<g>
				<g>
					<path style="fill:#BA68C8;" d="M251.415,219.136c1.52-0.878,2.754-0.174,2.759,1.573l0.092,32.397
						c0.005,1.744-1.222,3.871-2.742,4.749l-38.865,22.439c-1.52,0.878-2.755,0.171-2.76-1.573l-0.092-32.397
						c-0.005-1.747,1.221-3.871,2.742-4.749L251.415,219.136z"/>
				</g>
				<g style="opacity:0.2;">
					<path style="fill:#FFFFFF;" d="M251.415,219.136c1.52-0.878,2.754-0.174,2.759,1.573l0.092,32.397
						c0.005,1.744-1.222,3.871-2.742,4.749l-38.865,22.439c-1.52,0.878-2.755,0.171-2.76-1.573l-0.092-32.397
						c-0.005-1.747,1.221-3.871,2.742-4.749L251.415,219.136z"/>
				</g>
				<g>
					<path style="fill:#FFFFFF;" d="M251.706,221.267c0.084-0.049,0.168-0.052,0.221,0c0.092,0.089,0.065,0.301-0.056,0.477
						L232.5,249.447l19.464,5.281c0.122,0.032,0.149,0.216,0.058,0.408c-0.054,0.117-0.136,0.207-0.22,0.255
						c-0.057,0.033-0.114,0.046-0.163,0.035l-19.601-5.319l-19.507,27.897c-0.049,0.068-0.106,0.121-0.163,0.154
						c-0.084,0.049-0.168,0.054-0.223,0.001c-0.09-0.088-0.065-0.301,0.058-0.475l19.371-27.702L212.11,244.7
						c-0.124-0.034-0.149-0.216-0.061-0.41c0.055-0.115,0.138-0.208,0.223-0.257c0.057-0.033,0.114-0.046,0.163-0.031l19.601,5.319
						l19.507-27.898C251.592,221.353,251.649,221.3,251.706,221.267z"/>
				</g>
			</g>
			<g>
				<g>
					<path style="fill:#BA68C8;" d="M247.64,147.032c2.535-1.464,4.598-0.288,4.607,2.625c0.008,2.913-2.041,6.458-4.577,7.921
						l-38.236,22.075c-2.535,1.464-4.593,0.291-4.602-2.622c-0.008-2.913,2.036-6.46,4.572-7.924L247.64,147.032z"/>
				</g>
				<g style="opacity:0.2;">
					<path style="fill:#FFFFFF;" d="M247.64,147.032c2.535-1.464,4.598-0.288,4.607,2.625c0.008,2.913-2.041,6.458-4.577,7.921
						l-38.236,22.075c-2.535,1.464-4.593,0.291-4.602-2.622c-0.008-2.913,2.036-6.46,4.572-7.924L247.64,147.032z"/>
				</g>
			</g>
			<g>
				<g>
					<path style="fill:#BA68C8;" d="M247.64,161.833c2.535-1.464,4.598-0.288,4.607,2.625c0.008,2.913-2.041,6.458-4.577,7.921
						l-38.236,22.075c-2.535,1.464-4.593,0.291-4.602-2.622c-0.008-2.913,2.036-6.46,4.572-7.924L247.64,161.833z"/>
				</g>
				<g style="opacity:0.2;">
					<path style="fill:#FFFFFF;" d="M247.64,161.833c2.535-1.464,4.598-0.288,4.607,2.625c0.008,2.913-2.041,6.458-4.577,7.921
						l-38.236,22.075c-2.535,1.464-4.593,0.291-4.602-2.622c-0.008-2.913,2.036-6.46,4.572-7.924L247.64,161.833z"/>
				</g>
			</g>
			<g>
				<g>
					<path style="fill:#BA68C8;" d="M247.64,176.634c2.535-1.464,4.598-0.288,4.607,2.625c0.008,2.913-2.041,6.458-4.577,7.921
						l-38.236,22.075c-2.535,1.464-4.593,0.291-4.602-2.622c-0.008-2.913,2.036-6.46,4.572-7.924L247.64,176.634z"/>
				</g>
				<g style="opacity:0.2;">
					<path style="fill:#FFFFFF;" d="M247.64,176.634c2.535-1.464,4.598-0.288,4.607,2.625c0.008,2.913-2.041,6.458-4.577,7.921
						l-38.236,22.075c-2.535,1.464-4.593,0.291-4.602-2.622c-0.008-2.913,2.036-6.46,4.572-7.924L247.64,176.634z"/>
				</g>
			</g>
		</g>
		<path style="fill:#BA68C8;" d="M315.005,69.436c-0.006-2.186-0.775-3.727-2.012-4.467c-0.012-0.007-0.022-0.016-0.034-0.023
			c-0.016-0.009-0.031-0.018-0.047-0.027c-1.271-0.712-3.016-0.599-4.938,0.51L113.353,177.507
			c-3.873,2.236-6.998,7.656-6.985,12.099l0.02,9.077L315.025,78.267L315.005,69.436z"/>
		<path style="opacity:0.3;" d="M315.005,69.436c-0.006-2.186-0.775-3.727-2.012-4.467c-0.012-0.007-0.022-0.016-0.034-0.023
			c-0.016-0.009-0.031-0.018-0.047-0.027c-1.271-0.712-3.016-0.599-4.938,0.51L113.353,177.507
			c-3.873,2.236-6.998,7.656-6.985,12.099l0.02,9.077L315.025,78.267L315.005,69.436z"/>
		<g style="opacity:0.5;">
			<g>
				<path style="fill:#FFFFFF;" d="M115.634,183.852c1.055-0.609,1.914-0.12,1.917,1.093c0.003,1.213-0.849,2.69-1.905,3.299
					c-1.055,0.609-1.914,0.12-1.917-1.092C113.726,185.939,114.579,184.462,115.634,183.852z"/>
			</g>
			<g>
				<path style="fill:#FFFFFF;" d="M120.854,180.839c1.055-0.609,1.914-0.12,1.917,1.092c0.003,1.213-0.85,2.69-1.905,3.299
					c-1.055,0.609-1.914,0.12-1.917-1.093C118.946,182.925,119.799,181.448,120.854,180.839z"/>
			</g>
			<g>
				<path style="fill:#FFFFFF;" d="M126.074,177.825c1.055-0.609,1.914-0.12,1.917,1.093c0.003,1.213-0.85,2.69-1.905,3.299
					c-1.055,0.609-1.914,0.12-1.917-1.093C124.165,179.912,125.018,178.434,126.074,177.825z"/>
			</g>
		</g>
		<g>
			<g>
				<path style="fill:#BA68C8;" d="M115.634,183.852c1.055-0.609,1.914-0.12,1.917,1.093c0.003,1.213-0.849,2.69-1.905,3.299
					c-1.055,0.609-1.914,0.12-1.917-1.092C113.726,185.939,114.579,184.462,115.634,183.852z"/>
			</g>
			<g>
				<path style="fill:#BA68C8;" d="M120.854,180.839c1.055-0.609,1.914-0.12,1.917,1.092c0.003,1.213-0.85,2.69-1.905,3.299
					c-1.055,0.609-1.914,0.12-1.917-1.093C118.946,182.925,119.799,181.448,120.854,180.839z"/>
			</g>
			<g>
				<path style="fill:#BA68C8;" d="M126.074,177.825c1.055-0.609,1.914-0.12,1.917,1.093c0.003,1.213-0.85,2.69-1.905,3.299
					c-1.055,0.609-1.914,0.12-1.917-1.093C124.165,179.912,125.018,178.434,126.074,177.825z"/>
			</g>
		</g>
	</g>
</g>
<g id="Plants">
	<g>
		<g>
			<path style="fill:#FFFFFF;" d="M120.712,412.323l-12.985,0.378l-12.985-0.378c-0.559,8.769,1.153,17.706,3.513,22.071
				l0.009-0.001c0.423,0.958,1.272,1.866,2.57,2.616c3.832,2.212,10.023,2.212,13.83,0c1.32-0.767,2.169-1.701,2.569-2.683
				C119.576,429.936,121.269,421.048,120.712,412.323z"/>
			<g>
				<path style="fill:#EBEBEB;" d="M116.879,407.004c5.088,2.937,5.115,7.7,0.06,10.637c-5.055,2.938-13.276,2.938-18.364,0
					c-5.087-2.937-5.114-7.699-0.06-10.637C103.57,404.067,111.791,404.067,116.879,407.004z"/>
			</g>
			<g>
				<path style="fill:#E0E0E0;" d="M114.867,408.173c3.969,2.292,3.99,6.007,0.047,8.299c-3.943,2.292-10.358,2.292-14.327,0
					c-3.969-2.292-3.99-6.007-0.047-8.299C104.484,405.882,110.898,405.882,114.867,408.173z"/>
			</g>
			<g style="opacity:0.15;">
				<path d="M114.867,408.173c3.969,2.292,3.99,6.007,0.047,8.299c-3.943,2.292-10.358,2.292-14.327,0
					c-3.969-2.292-3.99-6.007-0.047-8.299C104.484,405.882,110.898,405.882,114.867,408.173z"/>
			</g>
		</g>
		<g>
			<path style="fill:#BA68C8;" d="M101.104,385.749c-2.112-2.626-4.565-4.978-6.501-7.735c-1.321-1.881-2.426-4.184-1.87-6.415
				c0.515-2.07,2.45-3.609,4.546-4.001c2.097-0.392,4.291,0.234,6.102,1.361c1.811,1.127,3.283,2.722,4.612,4.39
				c7.266,9.118,10.805,21.12,9.65,32.722c-0.132,1.33-0.355,2.729-1.205,3.76c-0.911,1.106-2.507,1.594-3.882,1.187
				c-3.537-1.05-3.068-5.828-3.646-8.64c-0.793-3.853-2.168-7.585-4.063-11.031C103.764,389.376,102.512,387.5,101.104,385.749z"/>
			<path style="opacity:0.2;fill:#FFFFFF;" d="M101.104,385.749c-2.112-2.626-4.565-4.978-6.501-7.735
				c-1.321-1.881-2.426-4.184-1.87-6.415c0.515-2.07,2.45-3.609,4.546-4.001c2.097-0.392,4.291,0.234,6.102,1.361
				c1.811,1.127,3.283,2.722,4.612,4.39c7.266,9.118,10.805,21.12,9.65,32.722c-0.132,1.33-0.355,2.729-1.205,3.76
				c-0.911,1.106-2.507,1.594-3.882,1.187c-3.537-1.05-3.068-5.828-3.646-8.64c-0.793-3.853-2.168-7.585-4.063-11.031
				C103.764,389.376,102.512,387.5,101.104,385.749z"/>
			<g>
				<path style="fill:#F0F0F0;" d="M112.776,407.456c-0.137-0.027-0.243-0.145-0.25-0.29c-0.248-5.678-2.093-25.061-15.451-36.057
					c-0.132-0.108-0.151-0.304-0.042-0.436c0.109-0.132,0.303-0.15,0.436-0.042c13.555,11.16,15.425,30.765,15.676,36.508
					c0.007,0.171-0.126,0.315-0.296,0.323C112.824,407.462,112.8,407.461,112.776,407.456z"/>
			</g>
			<g>
				<path style="fill:#BA68C8;" d="M114.728,408.071c-0.404,2.229-2.319,4.987-4.337,6.014c-2.001,1.018-4.324,1.291-6.563,1.098
					c-2.28-0.196-4.494-0.85-6.662-1.58c-1.071-0.361-2.261-0.847-2.375-2.174c-0.06-0.7,0.254-1.378,0.757-1.868
					c0.211-0.206,0.444-0.406,0.691-0.595c0.504-0.385,0.267-1.186-0.365-1.23c-0.637-0.044-1.271-0.115-1.899-0.235
					c-1.45-0.277-2.877-0.83-3.987-1.803c-0.833-0.731-1.464-1.684-1.841-2.727c-0.323-0.892-0.413-2.011,0.263-2.677
					c0.388-0.382,0.945-0.527,1.477-0.642c0.475-0.103,0.951-0.19,1.428-0.264c0.634-0.099,0.739-0.964,0.147-1.211l-2.014-0.839
					c-0.56-0.233-1.142-0.483-1.529-0.949c-0.617-0.744-0.573-1.826-0.388-2.775c0.246-1.261,0.682-2.477,0.979-3.727
					c0.297-1.25,0.453-2.57,0.133-3.814c3.762-0.381,7.626-0.202,11.285,0.753c1.093,0.285,2.198,0.643,3.08,1.349
					c1.256,1.005,1.583,2.513,1.45,4.148c-0.025,0.31,0.401,0.427,0.549,0.154l1.287-2.374c0.388-0.715,1.265-0.985,2.002-0.639
					c1.111,0.521,2.102,1.356,2.944,2.315c0.907,1.034,1.371,2.396,1.26,3.768c-0.15,1.854-0.474,3.732-0.938,5.531
					c-0.122,0.471,0.406,0.826,0.801,0.542l0.061-0.044c0.352-0.254,0.783-0.406,1.214-0.353c1.138,0.141,1.428,1.294,1.504,2.276
					C115.248,404.916,114.997,406.591,114.728,408.071z"/>
				<path style="opacity:0.2;" d="M114.728,408.071c-0.404,2.229-2.319,4.987-4.337,6.014c-2.001,1.018-4.324,1.291-6.563,1.098
					c-2.28-0.196-4.494-0.85-6.662-1.58c-1.071-0.361-2.261-0.847-2.375-2.174c-0.06-0.7,0.254-1.378,0.757-1.868
					c0.211-0.206,0.444-0.406,0.691-0.595c0.504-0.385,0.267-1.186-0.365-1.23c-0.637-0.044-1.271-0.115-1.899-0.235
					c-1.45-0.277-2.877-0.83-3.987-1.803c-0.833-0.731-1.464-1.684-1.841-2.727c-0.323-0.892-0.413-2.011,0.263-2.677
					c0.388-0.382,0.945-0.527,1.477-0.642c0.475-0.103,0.951-0.19,1.428-0.264c0.634-0.099,0.739-0.964,0.147-1.211l-2.014-0.839
					c-0.56-0.233-1.142-0.483-1.529-0.949c-0.617-0.744-0.573-1.826-0.388-2.775c0.246-1.261,0.682-2.477,0.979-3.727
					c0.297-1.25,0.453-2.57,0.133-3.814c3.762-0.381,7.626-0.202,11.285,0.753c1.093,0.285,2.198,0.643,3.08,1.349
					c1.256,1.005,1.583,2.513,1.45,4.148c-0.025,0.31,0.401,0.427,0.549,0.154l1.287-2.374c0.388-0.715,1.265-0.985,2.002-0.639
					c1.111,0.521,2.102,1.356,2.944,2.315c0.907,1.034,1.371,2.396,1.26,3.768c-0.15,1.854-0.474,3.732-0.938,5.531
					c-0.122,0.471,0.406,0.826,0.801,0.542l0.061-0.044c0.352-0.254,0.783-0.406,1.214-0.353c1.138,0.141,1.428,1.294,1.504,2.276
					C115.248,404.916,114.997,406.591,114.728,408.071z"/>
				<path style="opacity:0.2;fill:#FFFFFF;" d="M114.728,408.071c-0.404,2.229-2.319,4.987-4.337,6.014
					c-2.001,1.018-4.324,1.291-6.563,1.098c-2.28-0.196-4.494-0.85-6.662-1.58c-1.071-0.361-2.261-0.847-2.375-2.174
					c-0.06-0.7,0.254-1.378,0.757-1.868c0.211-0.206,0.444-0.406,0.691-0.595c0.504-0.385,0.267-1.186-0.365-1.23
					c-0.637-0.044-1.271-0.115-1.899-0.235c-1.45-0.277-2.877-0.83-3.987-1.803c-0.833-0.731-1.464-1.684-1.841-2.727
					c-0.323-0.892-0.413-2.011,0.263-2.677c0.388-0.382,0.945-0.527,1.477-0.642c0.475-0.103,0.951-0.19,1.428-0.264
					c0.634-0.099,0.739-0.964,0.147-1.211l-2.014-0.839c-0.56-0.233-1.142-0.483-1.529-0.949c-0.617-0.744-0.573-1.826-0.388-2.775
					c0.246-1.261,0.682-2.477,0.979-3.727c0.297-1.25,0.453-2.57,0.133-3.814c3.762-0.381,7.626-0.202,11.285,0.753
					c1.093,0.285,2.198,0.643,3.08,1.349c1.256,1.005,1.583,2.513,1.45,4.148c-0.025,0.31,0.401,0.427,0.549,0.154l1.287-2.374
					c0.388-0.715,1.265-0.985,2.002-0.639c1.111,0.521,2.102,1.356,2.944,2.315c0.907,1.034,1.371,2.396,1.26,3.768
					c-0.15,1.854-0.474,3.732-0.938,5.531c-0.122,0.471,0.406,0.826,0.801,0.542l0.061-0.044c0.352-0.254,0.783-0.406,1.214-0.353
					c1.138,0.141,1.428,1.294,1.504,2.276C115.248,404.916,114.997,406.591,114.728,408.071z"/>
				<path style="fill:#F0F0F0;" d="M108.744,413.775c-0.016-0.079-0.795-3.855-3.035-8.796c0-0.089-0.038-0.172-0.107-0.231
					c-0.07-0.153-0.139-0.305-0.212-0.46c0.643-5.908,2.983-10.03,3.006-10.071c0.085-0.148,0.034-0.337-0.114-0.423
					c-0.148-0.083-0.337-0.034-0.422,0.114c-0.023,0.04-2.176,3.831-2.964,9.362c-2.569-5.152-6.667-11.178-12.994-15.581
					c-0.141-0.097-0.333-0.063-0.431,0.077c-0.098,0.14-0.063,0.333,0.077,0.431c6.526,4.541,10.644,10.837,13.147,16.061
					c-5.099-2.482-10.516-1.501-10.757-1.456c-0.168,0.031-0.278,0.193-0.246,0.362c0.024,0.128,0.124,0.222,0.244,0.246
					c0.038,0.007,0.078,0.008,0.118,0c0.059-0.011,5.965-1.085,11.071,1.77c2.223,4.891,2.996,8.635,3.012,8.714
					c0.025,0.127,0.125,0.22,0.244,0.244c0.038,0.008,0.079,0.008,0.119,0C108.668,414.105,108.777,413.942,108.744,413.775z"/>
			</g>
		</g>
	</g>
	<g>
		<g>
			<path style="fill:#FFFFFF;" d="M426.255,284.578l-13.886,0.405l-13.886-0.405c-0.598,9.377,1.233,18.934,3.757,23.602l0.01-0.001
				c0.452,1.024,1.361,1.996,2.749,2.797c4.097,2.366,10.718,2.366,14.789,0c1.411-0.82,2.319-1.818,2.747-2.869
				C425.039,303.413,426.85,293.909,426.255,284.578z"/>
			<g>
				<path style="fill:#EBEBEB;" d="M422.155,278.891c5.441,3.141,5.469,8.233,0.064,11.375c-5.405,3.141-14.197,3.141-19.638,0
					c-5.44-3.141-5.469-8.233-0.064-11.375C407.924,275.75,416.715,275.75,422.155,278.891z"/>
			</g>
			<g>
				<path style="fill:#E0E0E0;" d="M420.004,280.141c4.245,2.451,4.267,6.424,0.05,8.874c-4.217,2.451-11.076,2.451-15.32,0
					c-4.244-2.451-4.267-6.423-0.05-8.874C408.901,277.69,415.76,277.69,420.004,280.141z"/>
			</g>
			<g style="opacity:0.15;">
				<path d="M420.004,280.141c4.245,2.451,4.267,6.424,0.05,8.874c-4.217,2.451-11.076,2.451-15.32,0
					c-4.244-2.451-4.267-6.423-0.05-8.874C408.901,277.69,415.76,277.69,420.004,280.141z"/>
			</g>
		</g>
		<g>
			<path style="fill:#BA68C8;" d="M435.199,225.325c-31.292,10.246-31.576,31.18-24.521,46.088
				c1.779,3.018,7.163,4.638,11.85-13.902l-8.219,1.054l9.578-4.855l2.488-7.437l-7.986,0.593l10.137-4.264
				C432.26,231.305,435.199,225.325,435.199,225.325z"/>
			<path style="opacity:0.2;" d="M435.199,225.325c-31.292,10.246-31.576,31.18-24.521,46.088c1.779,3.018,7.163,4.638,11.85-13.902
				l-8.219,1.054l9.578-4.855l2.488-7.437l-7.986,0.593l10.137-4.264C432.26,231.305,435.199,225.325,435.199,225.325z"/>
			<path style="opacity:0.2;fill:#FFFFFF;" d="M435.199,225.325c-31.292,10.246-31.576,31.18-24.521,46.088
				c1.779,3.018,7.163,4.638,11.85-13.902l-8.219,1.054l9.578-4.855l2.488-7.437l-7.986,0.593l10.137-4.264
				C432.26,231.305,435.199,225.325,435.199,225.325z"/>
			<path style="fill:#FFFFFF;" d="M426.348,230.56c-16.502,12.524-17.992,26.883-13.33,41.874
				C411.37,259.234,409.587,245.888,426.348,230.56z"/>
		</g>
		<g>
			<path style="fill:#BA68C8;" d="M382.198,246.59c30.845,4.343,34.587,23.793,30.494,38.848c-1.155,3.106-5.901,5.51-13.346-10.978
				l7.83-0.384l-9.727-2.93l-3.553-6.513l7.536-0.774l-10.149-2.286C385.929,251.671,382.198,246.59,382.198,246.59z"/>
			<path style="opacity:0.2;fill:#FFFFFF;" d="M382.198,246.59c30.845,4.343,34.587,23.793,30.494,38.848
				c-1.155,3.106-5.901,5.51-13.346-10.978l7.83-0.384l-9.727-2.93l-3.553-6.513l7.536-0.774l-10.149-2.286
				C385.929,251.671,382.198,246.59,382.198,246.59z"/>
			<path style="opacity:0.1;" d="M382.198,246.59c30.845,4.343,34.587,23.793,30.494,38.848c-1.155,3.106-5.901,5.51-13.346-10.978
				l7.83-0.384l-9.727-2.93l-3.553-6.513l7.536-0.774l-10.149-2.286C385.929,251.671,382.198,246.59,382.198,246.59z"/>
			<path style="fill:#FFFFFF;" d="M391.311,249.995c17.449,8.922,21.222,22.048,19.371,36.783
				C410.025,274.211,409.467,261.486,391.311,249.995z"/>
		</g>
		<g>
			<path style="fill:#BA68C8;" d="M444.227,253.879c-28.287,0.462-33.837,17.574-31.833,31.602
				c0.694,2.929,4.702,5.626,13.257-8.401l-7.014-1.223l9.095-1.552l3.931-5.472l-6.706-1.542l9.403-0.925
				C440.296,258.041,444.227,253.879,444.227,253.879z"/>
			<path style="fill:#FFFFFF;" d="M435.633,255.928c-16.726,6.089-21.596,17.496-21.577,30.985
				C416.055,275.659,417.982,264.252,435.633,255.928z"/>
			<path style="opacity:0.2;fill:#FFFFFF;" d="M444.227,253.879c-28.287,0.462-33.837,17.574-31.833,31.602
				c0.694,2.929,4.702,5.626,13.257-8.401l-7.014-1.223l9.095-1.552l3.931-5.472l-6.706-1.542l9.403-0.925
				C440.296,258.041,444.227,253.879,444.227,253.879z"/>
		</g>
	</g>
</g>
<g id="Character_3">
	<g>
		<polygon style="fill:#FFA8A7;" points="335.198,144.009 335.175,153.287 336.834,167.841 339.245,182.01 347.54,182.976 
			344.147,167.841 337.723,142.793 		"/>
		<path style="fill:#BA68C8;" d="M338.491,180.274c5.719-2.137,9.461,0.866,9.461,0.866l0.936,24.269l-10.207-5.841L338.491,180.274
			z"/>
		<path style="fill:#BA68C8;" d="M338.491,180.274c5.719-2.137,9.461,0.866,9.461,0.866l0.936,24.269l-10.207-5.841L338.491,180.274
			z"/>
		<path style="opacity:0.3;" d="M338.491,180.274c5.719-2.137,9.461,0.866,9.461,0.866l0.936,24.269l-10.207-5.841L338.491,180.274z
			"/>
		<path style="opacity:0.3;fill:#FFFFFF;" d="M338.491,180.274c5.719-2.137,9.461,0.866,9.461,0.866l0.936,24.269l-10.207-5.841
			L338.491,180.274z"/>
		<g>
			<g>
				<path style="fill:#BA68C8;" d="M333.398,110.495c0.94-0.543,1.706-0.106,1.708,0.978l0.301,106.272
					c0.003,1.084-0.758,2.402-1.697,2.944l-41.977,24.236c-0.94,0.543-1.705,0.106-1.709-0.978l-0.301-106.272
					c-0.003-1.084,0.758-2.402,1.697-2.944L333.398,110.495z"/>
			</g>
			<g style="opacity:0.2;">
				<path d="M333.398,110.495c0.94-0.543,1.706-0.106,1.708,0.978l0.301,106.272c0.003,1.084-0.758,2.402-1.697,2.944
					l-41.977,24.236c-0.94,0.543-1.705,0.106-1.709-0.978l-0.301-106.272c-0.003-1.084,0.758-2.402,1.697-2.944L333.398,110.495z"/>
			</g>
			<g style="opacity:0.1;">
				<path style="fill:#FFFFFF;" d="M333.398,110.495c0.94-0.543,1.706-0.106,1.708,0.978l0.301,106.272
					c0.003,1.084-0.758,2.402-1.697,2.944l-41.977,24.236c-0.94,0.543-1.705,0.106-1.709-0.978l-0.301-106.272
					c-0.003-1.084,0.758-2.402,1.697-2.944L333.398,110.495z"/>
			</g>
			<g>
				<path style="fill:#FFFFFF;" d="M332.823,114.158c0.393-0.067,0.486,0.171,0.391,0.469l-20.179,62.812l20.468,39.34
					c0.096,0.191,0.005,0.536-0.209,0.774c-0.337,0.239-0.491,0.222-0.565,0.083l-20.163-38.748l-19.874,61.863
					c-0.072,0.223-0.225,0.417-0.387,0.51c-0.392,0.067-0.484-0.17-0.389-0.473l20.179-62.807l-20.468-39.344
					c-0.097-0.187-0.005-0.531,0.209-0.77c0.339-0.241,0.494-0.223,0.564-0.083l20.159,38.75l19.878-61.865
					C332.507,114.448,332.661,114.252,332.823,114.158z"/>
			</g>
		</g>
		<path style="fill:#FFA8A7;" d="M308.565,194.008l-9.012-3.004l-5.934-22.41c-0.139-0.655-0.081-1.337,0.168-1.96l0.624-1.563
			c0.329-0.824,0.484-1.706,0.455-2.593l-0.112-3.426c-0.018-0.564-0.481-1.011-1.045-1.011l0,0c-0.506,0-0.939,0.362-1.029,0.86
			l-0.536,2.974l-1.257,1.445l-1.138-4.069v-5.168l-2.563,3.719c-0.69,1.001-0.964,2.229-0.766,3.428l1.074,6.507l2.886,25.191
			c0.426,3.716,2.88,6.889,6.37,8.236l9.468,3.654L308.565,194.008z"/>
		<g>
			<g>
				<g>
					<path style="fill:#455A64;" d="M327.877,330.346c-0.488,1.538-2.174,2.418-3.783,2.546c-1.608,0.128-3.197-0.324-4.785-0.612
						c-3.555-0.644-6.982-0.006-10.527-0.089c-1.163-0.027-2.337-0.081-3.462-0.376c-1.125-0.296-2.212-0.853-2.96-1.744
						c-0.442-0.526-0.745-1.18-0.852-1.856c-0.174,1.015,0.184,2.1,0.852,2.895c0.748,0.891,1.835,1.449,2.96,1.744
						c1.126,0.296,2.299,0.349,3.462,0.376c3.545,0.083,6.972-0.555,10.527,0.089c1.587,0.288,3.176,0.74,4.785,0.612
						c1.608-0.128,3.295-1.008,3.783-2.546c0.168-0.529,0.179-1.083,0.123-1.638C327.977,329.949,327.94,330.15,327.877,330.346z"/>
					<path style="fill:#37474F;" d="M327.786,327.4c-0.218-1.077-0.436-2.153-0.654-3.23c-0.115-0.569-0.236-1.153-0.547-1.644
						c-0.311-0.491-0.859-0.875-1.438-0.822c-1.947-0.259-4.684-0.963-6.301,0.15c-2.532,1.743-5.634,2.644-8.706,2.528
						c-1.608-0.061-3.218-0.39-4.816-0.194c-1.597,0.196-3.26,1.086-3.734,2.623c-0.141,0.455-0.157,0.934-0.083,1.402
						c0.108,0.676,0.41,1.329,0.852,1.856c0.748,0.891,1.835,1.449,2.96,1.744c1.126,0.296,2.299,0.349,3.462,0.376
						c3.545,0.083,6.972-0.555,10.527,0.089c1.587,0.288,3.176,0.74,4.785,0.612c1.608-0.128,3.295-1.008,3.783-2.546
						c0.062-0.196,0.099-0.397,0.123-0.599C328.093,328.976,327.942,328.172,327.786,327.4z"/>
				</g>
				<path style="fill:#FFA8A7;" d="M318.374,318.473l-0.139,4.207c-0.03,0.894,0.652,1.661,1.545,1.72
					c1.445,0.096,2.852,0.09,4.24-0.041c1.181-0.111,2.105-1.069,2.168-2.254l0.167-3.107L318.374,318.473z"/>
			</g>
			<g>
				<g>
					<path style="fill:#455A64;" d="M345.844,316.234c-0.044,0.625-0.193,1.241-0.563,1.738c-0.464,0.624-1.221,0.975-1.986,1.118
						c-1.846,0.346-3.86-0.483-4.928-2.029c-0.529-0.766-0.83-1.667-1.331-2.452c-0.695-1.089-1.738-1.901-2.763-2.687
						c-1.025-0.786-2.073-1.589-2.784-2.668c-0.688-1.043-1.004-2.41-0.532-3.559c-0.098,0.141-0.188,0.288-0.261,0.448
						c-0.554,1.208-0.226,2.678,0.499,3.79c0.725,1.112,1.795,1.94,2.841,2.75c1.046,0.81,2.11,1.647,2.819,2.77
						c0.511,0.809,0.818,1.738,1.358,2.527c1.09,1.593,3.145,2.448,5.029,2.091c0.78-0.148,1.552-0.509,2.026-1.152
						c0.5-0.678,0.605-1.572,0.589-2.417C345.856,316.413,345.848,316.323,345.844,316.234z"/>
					<path style="fill:#37474F;" d="M344.568,310.953c-1.279-2.242-3.916-3.873-5.951-5.46c-1.155-0.901-2.484-1.67-3.943-1.791
						c-1.46-0.121-3.058,0.548-3.673,1.877c-0.018,0.038-0.027,0.078-0.043,0.117c-0.471,1.149-0.156,2.516,0.532,3.559
						c0.711,1.078,1.759,1.882,2.784,2.668c1.025,0.786,2.068,1.598,2.763,2.687c0.501,0.785,0.802,1.686,1.331,2.452
						c1.068,1.545,3.082,2.374,4.928,2.029c0.764-0.143,1.521-0.494,1.986-1.118c0.37-0.497,0.519-1.113,0.563-1.738
						c0.014-0.203,0.018-0.406,0.014-0.607C345.825,313.994,345.377,312.371,344.568,310.953z"/>
				</g>
				<path style="fill:#FFA8A7;" d="M339.022,309.009v3.824c3.489,1.458,5.95-0.263,5.95-0.263l0.359-3.441L339.022,309.009z"/>
			</g>
			<path style="fill:#455A64;" d="M346.335,239.635c1.147,3.441-0.263,19.787-0.932,35.464c2.485,5.927,1.816,22.75,0.382,34.699
				c0,0-2.486,1.529-6.978,0l-5.64-32.978l-0.783-18.64c0,0-1.416,16.537-3.041,27.148c1.529,8.125,1.147,9.654-2.629,34.647
				c0,0-3.871,2.251-8.46,0c-2.135-35.113-1.35-67.111-0.946-78.618L346.335,239.635z"/>
			<path style="opacity:0.3;" d="M332.861,269.53l-0.638-15.202c3.929,0,7.575-2.937,10.347-5.721
				c-2.664,4.744-7.826,6.848-7.826,6.848L332.861,269.53z"/>
		</g>
		<path style="fill:#BA68C8;" d="M316.71,242.287c17.53,7.345,28.89,0.71,30.432-2.742c-0.808-12.119,2.056-26.295,1.836-32.317
			c-0.22-6.023-0.959-12.808-10.297-11.447l-9.931,0.969l-5.038,1.224l-6.043,12.55L316.71,242.287z"/>
		<path style="opacity:0.2;" d="M316.71,242.287c17.53,7.345,28.89,0.71,30.432-2.742c-0.808-12.119,2.056-26.295,1.836-32.317
			c-0.22-6.023-0.959-12.808-10.297-11.447l-9.931,0.969l-5.038,1.224l-6.043,12.55L316.71,242.287z"/>
		<path style="opacity:0.3;fill:#FFFFFF;" d="M316.71,242.287c17.53,7.345,28.89,0.71,30.432-2.742
			c-0.808-12.119,2.056-26.295,1.836-32.317c-0.22-6.023-0.959-12.808-10.297-11.447l-9.931,0.969l-5.038,1.224l-6.043,12.55
			L316.71,242.287z"/>
		<g>
			<path style="fill:#455A64;" d="M338.681,191.02c0.593,0.079,1.533-0.217,1.94-0.656c0.407-0.439,0.584-1.08,0.461-1.666
				c0.588-0.107,1.109-0.529,1.334-1.083c0.226-0.553,0.035-1.327-0.311-1.814c0.851-0.215,1.594-0.822,1.975-1.613
				c0.381-0.791,0.451-1.814,0.088-2.613c0.935-0.238,1.719-1,1.984-1.928c0.265-0.928,0.105-2.134-0.563-2.831
				c0.817-1.063,0.994-2.581,0.445-3.803c-0.549-1.223-1.929-2.109-3.266-2.204c0.206-1.288-0.296-2.666-1.282-3.52
				c-0.986-0.854-2.366-1.094-3.611-0.706c-0.427-1.089-1.462-1.915-2.619-2.09c-1.156-0.175-2.433,0.184-3.163,1.098
				c-0.569-0.654-1.481-0.99-2.339-0.862c-0.857,0.128-1.764,0.603-2.117,1.394c-1.103-0.492-2.454-0.379-3.459,0.29
				c-1.005,0.669-1.584,1.9-1.555,3.107c-0.889,0.24-1.548,1.148-1.5,2.068c0.047,0.92,0.82,1.846,1.729,1.993
				c0.861,4.711,2.467,9.384,4.657,13.643c0.984,1.914,2.191,3.856,4.1,4.85C333.675,193.149,336.914,192.534,338.681,191.02z"/>
			<path style="fill:#BA68C8;" d="M338.681,191.02c0.593,0.079,1.533-0.217,1.94-0.656c0.407-0.439,0.584-1.08,0.461-1.666
				c0.588-0.107,1.109-0.529,1.334-1.083c0.226-0.553,0.035-1.327-0.311-1.814c0.851-0.215,1.594-0.822,1.975-1.613
				c0.381-0.791,0.451-1.814,0.088-2.613c0.935-0.238,1.719-1,1.984-1.928c0.265-0.928,0.105-2.134-0.563-2.831
				c0.817-1.063,0.994-2.581,0.445-3.803c-0.549-1.223-1.929-2.109-3.266-2.204c0.206-1.288-0.296-2.666-1.282-3.52
				c-0.986-0.854-2.366-1.094-3.611-0.706c-0.427-1.089-1.462-1.915-2.619-2.09c-1.156-0.175-2.433,0.184-3.163,1.098
				c-0.569-0.654-1.481-0.99-2.339-0.862c-0.857,0.128-1.764,0.603-2.117,1.394c-1.103-0.492-2.454-0.379-3.459,0.29
				c-1.005,0.669-1.584,1.9-1.555,3.107c-0.889,0.24-1.548,1.148-1.5,2.068c0.047,0.92,0.82,1.846,1.729,1.993
				c0.861,4.711,2.467,9.384,4.657,13.643c0.984,1.914,2.191,3.856,4.1,4.85C333.675,193.149,336.914,192.534,338.681,191.02z"/>
			<path style="opacity:0.7;" d="M338.681,191.02c0.593,0.079,1.533-0.217,1.94-0.656c0.407-0.439,0.584-1.08,0.461-1.666
				c0.588-0.107,1.109-0.529,1.334-1.083c0.226-0.553,0.035-1.327-0.311-1.814c0.851-0.215,1.594-0.822,1.975-1.613
				c0.381-0.791,0.451-1.814,0.088-2.613c0.935-0.238,1.719-1,1.984-1.928c0.265-0.928,0.105-2.134-0.563-2.831
				c0.817-1.063,0.994-2.581,0.445-3.803c-0.549-1.223-1.929-2.109-3.266-2.204c0.206-1.288-0.296-2.666-1.282-3.52
				c-0.986-0.854-2.366-1.094-3.611-0.706c-0.427-1.089-1.462-1.915-2.619-2.09c-1.156-0.175-2.433,0.184-3.163,1.098
				c-0.569-0.654-1.481-0.99-2.339-0.862c-0.857,0.128-1.764,0.603-2.117,1.394c-1.103-0.492-2.454-0.379-3.459,0.29
				c-1.005,0.669-1.584,1.9-1.555,3.107c-0.889,0.24-1.548,1.148-1.5,2.068c0.047,0.92,0.82,1.846,1.729,1.993
				c0.861,4.711,2.467,9.384,4.657,13.643c0.984,1.914,2.191,3.856,4.1,4.85C333.675,193.149,336.914,192.534,338.681,191.02z"/>
			<polygon style="fill:#F28F8F;" points="322.145,179.807 320.089,183.381 322.341,184.214 			"/>
			<path style="fill:#FFA8A7;" d="M322.853,173.581c-1.363,4.928-1.571,10.173-0.59,15.192c0.167,0.855,0.384,1.738,0.945,2.404
				c0.633,0.753,1.631,1.124,2.612,1.202c0.981,0.079,1.962-0.102,2.93-0.282v4.652c3.531,0.832,7.163,1.162,9.931-0.969v-4.76
				c-1.984,0.583-4.144,0.825-6.165,0.385c-2.439-1.316-2.929-5.771-2.586-6.947c0.36,0.592,1.231,0.824,1.907,0.67
				c0.676-0.154,1.236-0.657,1.583-1.257c0.347-0.6,0.503-1.292,0.591-1.98c0.107-0.838,0.104-1.748-0.362-2.453
				c-0.572-0.866-1.759-1.198-2.762-0.931c-1.003,0.267-1.815,1.04-2.325,1.944c-0.161,0.286-0.295,0.584-0.409,0.89
				c-0.207,0.557-1.016,0.455-1.07-0.137c-0.122-1.329,0.113-2.693,0.7-3.892c-0.785,0.011-1.523-0.593-1.993-1.221
				c-0.47-0.628-0.617-1.485-0.385-2.235C324.226,173.992,322.853,173.581,322.853,173.581z"/>
		</g>
		<path style="fill:#FFA8A7;" d="M335.198,144.009l-1.623-3.891l-0.821-3.693c-0.105-0.473,0.164-0.948,0.624-1.101l0,0
			c0.492-0.164,1.024,0.099,1.192,0.59l0.689,2.005v-5.656l2.359,4.222c0.355,0.636,0.513,1.363,0.453,2.089l-0.348,4.218
			L335.198,144.009z"/>
		<path style="fill:#BA68C8;" d="M323.735,197.962c-5.586-1.849-15.533-4.851-15.533-4.851c-4.464,4.502-4.087,11.769-4.087,11.769
			l13.554,5.644C330.602,214.62,332.487,200.858,323.735,197.962z"/>
		<path style="opacity:0.3;" d="M323.735,197.962c-5.586-1.849-15.533-4.851-15.533-4.851c-4.464,4.502-4.087,11.769-4.087,11.769
			l13.554,5.644C330.602,214.62,332.487,200.858,323.735,197.962z"/>
		<path style="opacity:0.3;fill:#FFFFFF;" d="M323.735,197.962c-5.586-1.849-15.533-4.851-15.533-4.851
			c-4.464,4.502-4.087,11.769-4.087,11.769l13.554,5.644C330.602,214.62,332.487,200.858,323.735,197.962z"/>
	</g>
</g>
<g id="Character_2">
	<g>
		<g>
			<path style="fill:#FFA8A7;" d="M328.845,317.591l-18.875-13.939l-7.259-21.831c-0.028-1.629-0.065-3.281-0.098-4.921
				c-0.02-1.005-0.58-1.937-1.487-2.371c-1.372-0.656-2.851-1.098-4.357-1.235c-0.315-1.052-0.744-2.05-1.409-2.89
				c-0.346-0.437-0.96-0.563-1.459-0.315c-0.007,0.003-0.013,0.007-0.02,0.01c-0.626,0.311-0.851,1.092-0.481,1.686
				c1.502,2.412,2.661,5.066,3.005,7.874c-1.02-0.543-1.898-1.2-2.645-2.013c-0.77-0.839-2.141-0.641-2.655,0.375l-0.01,0.021
				c1.257,2.656,3.708,4.92,6.363,6.18l3.418,22.378c0.329,2.151,1.393,4.122,3.012,5.577l13.952,12.533L328.845,317.591z"/>
			<path style="fill:#F28F8F;" d="M309.97,303.652l-3.552-10.681c-3.309,4.424-5.126,9.959-5.052,15.484
				c0.527,1.417,1.384,2.699,2.523,3.722l13.952,12.533l11.005-7.117L309.97,303.652z"/>
		</g>
		<g>
			<path style="fill:#263238;" d="M314.871,451.704c-0.466,0.977-1.943,1.88-3.56,2.147c-1.617,0.267-3.262-0.084-4.885-0.31
				c-2.413-0.336-4.864-0.399-7.291-0.186c-1.511,0.133-3.02,0.372-4.537,0.324c-1.516-0.048-3.075-0.41-4.265-1.352
				c-0.844-0.668-1.451-1.671-1.601-2.721c-0.197,1.369,0.504,2.801,1.601,3.67c1.19,0.942,2.749,1.304,4.265,1.351
				c1.517,0.048,3.025-0.192,4.537-0.324c2.427-0.213,4.878-0.15,7.291,0.186c1.623,0.227,3.384,0.692,5.001,0.425
				c1.617-0.267,3.095-1.169,3.56-2.147L314.871,451.704z"/>
			<g>
				<path style="fill:#FFFFFF;" d="M297.172,448.82c1.361,0,0.86-2.013,2.155-3.362c-0.526,0.03-1.055,0.04-1.584,0.038
					C296.579,447.172,296.253,448.82,297.172,448.82z"/>
				<path style="fill:#FFFFFF;" d="M299.999,448.715c1.368,0,1.009-2.4,2.354-3.8c-0.307,0.105-0.617,0.198-0.932,0.268
					c-0.268,0.06-0.538,0.106-0.809,0.146C299.413,447.026,299.068,448.715,299.999,448.715z"/>
				<path style="fill:#455A64;" d="M313.464,444.115c-0.092-0.444-0.344-0.838-0.708-1.108l-7.352-0.183
					c-0.752,1.004-1.857,1.681-3.052,2.093c-1.345,1.4-0.985,3.8-2.354,3.8c-0.93,0-0.585-1.689,0.613-3.386
					c-0.426,0.063-0.854,0.104-1.285,0.128c-1.295,1.349-0.794,3.362-2.155,3.362c-0.919,0-0.593-1.648,0.571-3.324
					c-0.344-0.001-0.687-0.005-1.03-0.01c-0.311-0.005-0.626-0.026-0.94-0.052c-2.703,2.138-2.934,4.458-2.585,8.098
					c0.466,0.083,0.939,0.133,1.409,0.147c1.517,0.048,3.025-0.192,4.537-0.324c2.427-0.213,4.878-0.15,7.291,0.186
					c1.623,0.226,3.268,0.577,4.885,0.31c1.617-0.267,3.095-1.17,3.56-2.147L313.464,444.115z"/>
				<path style="fill:#FFFFFF;" d="M295.773,445.434c-1.236-0.101-2.487-0.291-3.676-0.001c-1.491,0.364-2.919,1.394-3.308,2.879
					c-0.112,0.427-0.119,0.864-0.058,1.294c0.15,1.05,0.757,2.053,1.601,2.721c0.821,0.65,1.819,1.019,2.856,1.204
					C292.839,449.892,293.069,447.572,295.773,445.434z"/>
			</g>
			<path style="fill:#FFA8A7;" d="M305.194,440.728v3.542c0,0.804,0.652,1.455,1.456,1.455h3.707c1.288,0,2.345-1.022,2.387-2.31
				l0.088-2.688H305.194z"/>
		</g>
		<g>
			<path style="fill:#263238;" d="M329.695,439.153c-0.442,0.885-1.245,1.482-2.231,1.562c-0.965,0.078-2.004-0.175-2.823-0.694
				c-1.276-0.81-1.773-2.084-2.642-3.232c-0.867-1.145-1.979-2.081-3.075-3.003c-1.158-0.974-2.318-2.026-2.938-3.406
				c-0.176-0.392-0.29-0.817-0.348-1.249c-0.113,0.8,0.016,1.657,0.348,2.397c0.62,1.38,1.78,2.433,2.938,3.407
				c1.095,0.922,2.207,1.857,3.075,3.002c0.87,1.148,1.367,2.423,2.642,3.232c0.818,0.52,1.857,0.772,2.823,0.694
				c0.986-0.079,1.789-0.676,2.231-1.562c0.152-0.305,0.159-1.206,0.134-1.974C329.812,438.691,329.772,438.999,329.695,439.153z"/>
			<g>
				<path style="fill:#FFFFFF;" d="M321.342,431.378c-0.105,0.184-0.222,0.398-0.179,0.606c0.043,0.208,0.201,0.388,0.402,0.457
					c0.281,0.098,0.599-0.022,0.827-0.214c0.228-0.192,0.39-0.448,0.573-0.683c0.488-0.622,1.15-1.106,1.892-1.38
					c0.363-0.134,0.745-0.217,1.131-0.25c-0.306-0.28-0.613-0.559-0.919-0.839c-0.578,0.036-1.151,0.166-1.676,0.411
					C322.536,429.888,321.81,430.558,321.342,431.378z"/>
				<path style="fill:#FFFFFF;" d="M321.538,428.456c-0.855,0.4-1.582,1.07-2.05,1.89c-0.105,0.184-0.222,0.398-0.179,0.606
					c0.043,0.208,0.201,0.388,0.402,0.457c0.281,0.098,0.599-0.022,0.827-0.214c0.228-0.192,0.39-0.448,0.574-0.682
					c0.488-0.622,1.15-1.106,1.892-1.38c0.591-0.219,1.23-0.298,1.858-0.245c-0.303-0.276-0.606-0.553-0.909-0.829
					C323.129,427.977,322.286,428.105,321.538,428.456z"/>
				<path style="fill:#FFFFFF;" d="M323.371,427.535c-0.875-0.779-1.798-1.514-2.886-1.928c-1.317-0.5-2.951-0.429-3.967,0.548
					c-0.781,0.751-1.026,1.885-0.879,2.975c0.058,0.432,0.172,0.858,0.348,1.249c0.236,0.525,0.55,1.001,0.912,1.445
					C317.251,428.657,320,427.175,323.371,427.535z"/>
				<path style="fill:#455A64;" d="M329.769,436.047c-0.082-1.134-0.143-2.115-0.72-3.095l-1.787-1.875
					c-0.425-0.387-0.85-0.775-1.275-1.162c-0.386,0.033-0.768,0.115-1.131,0.25c-0.741,0.274-1.404,0.758-1.892,1.38
					c-0.184,0.234-0.346,0.491-0.573,0.683c-0.228,0.192-0.545,0.311-0.827,0.214c-0.201-0.07-0.359-0.25-0.402-0.457
					c-0.043-0.208,0.074-0.422,0.179-0.606c0.468-0.82,1.195-1.49,2.05-1.89c0.525-0.246,1.097-0.376,1.676-0.411
					c-0.069-0.063-0.138-0.126-0.207-0.189c-0.628-0.053-1.267,0.026-1.858,0.245c-0.741,0.274-1.404,0.758-1.892,1.38
					c-0.184,0.234-0.346,0.491-0.574,0.682c-0.228,0.192-0.545,0.312-0.827,0.214c-0.2-0.07-0.358-0.25-0.402-0.457
					c-0.043-0.208,0.074-0.422,0.179-0.606c0.468-0.82,1.195-1.49,2.05-1.89c0.749-0.35,1.591-0.479,2.414-0.397
					c-0.011-0.01-0.022-0.02-0.034-0.031c-0.181-0.165-0.363-0.329-0.547-0.492c-3.371-0.36-6.12,1.122-6.473,4.289
					c0.591,0.723,1.309,1.358,2.026,1.962c1.095,0.922,2.207,1.857,3.075,3.003c0.87,1.148,1.367,2.423,2.642,3.232
					c0.818,0.52,1.857,0.772,2.823,0.694c0.986-0.079,1.789-0.676,2.231-1.562c0.077-0.154,0.116-0.461,0.134-0.827
					C329.868,437.497,329.792,436.37,329.769,436.047z"/>
			</g>
			<path style="fill:#FFA8A7;" d="M323.318,430.448l0.21,3.801c2.4,1.384,4.922,0.63,5.763-0.245l0.158-3.556H323.318z"/>
		</g>
		<path style="fill:#BA68C8;" d="M328.405,348.876c-0.142-0.186-0.257-0.387-0.361-0.595c-7.513,3.959-16.529,4.996-24.738,2.812
			c-1.753,13.042-3.259,35.126-2.334,49.696c0.769,16.961,3.89,40.977,3.89,40.977c4.071,1.221,7.124,0.475,8.277-0.407
			c1.357-16.825,4.342-28.358,2.035-39.484c1.538-7.779,2.533-17.549,2.533-17.549l1.176,17.187l3.98,30.213
			c3.89,1.99,7.146-0.362,7.146-0.362c2.895-17.277,3.98-28.984,1.447-37.559C335.321,365.453,335.518,358.2,328.405,348.876z"/>
		<path style="opacity:0.4;" d="M328.405,348.876c-0.142-0.186-0.257-0.387-0.361-0.595c-7.513,3.959-16.529,4.996-24.738,2.812
			c-1.753,13.042-3.259,35.126-2.334,49.696c0.769,16.961,3.89,40.977,3.89,40.977c4.071,1.221,7.124,0.475,8.277-0.407
			c1.357-16.825,4.342-28.358,2.035-39.484c1.538-7.779,2.533-17.549,2.533-17.549l1.176,17.187l3.98,30.213
			c3.89,1.99,7.146-0.362,7.146-0.362c2.895-17.277,3.98-28.984,1.447-37.559C335.321,365.453,335.518,358.2,328.405,348.876z"/>
		<path style="opacity:0.1;fill:#FFFFFF;" d="M328.405,348.876c-0.142-0.186-0.257-0.387-0.361-0.595
			c-7.513,3.959-16.529,4.996-24.738,2.812c-1.753,13.042-3.259,35.126-2.334,49.696c0.769,16.961,3.89,40.977,3.89,40.977
			c4.071,1.221,7.124,0.475,8.277-0.407c1.357-16.825,4.342-28.358,2.035-39.484c1.538-7.779,2.533-17.549,2.533-17.549
			l1.176,17.187l3.98,30.213c3.89,1.99,7.146-0.362,7.146-0.362c2.895-17.277,3.98-28.984,1.447-37.559
			C335.321,365.453,335.518,358.2,328.405,348.876z"/>
		<path style="opacity:0.2;" d="M319.419,380.929l2.133-8.95c2.487-0.407,6.377-2.035,8.421-5.448
			c-2.924,2.266-6.622,3.639-10.321,3.639l-1.945,14.157l0.414,6.05l0.167-2.201C318.473,385.733,318.851,383.311,319.419,380.929z"
			/>
		<path style="fill:#BA68C8;" d="M312.982,318.154l-6.221,1.224c-1.375,2.516-2.776,4.879-4.151,7.395
			c-1.036,1.895-2.102,3.91-2.023,6.069c0.084,2.297,1.602,4.481,3.726,5.36l-2.969,21.287c11.529,7.042,30.213,2.085,31.931-4.156
			c-1.669-4.304-3.437-5.863-4.523-10.945c-0.797-3.732,1.075-8.988,1.401-10.496c0.501-2.313,1.004-4.643,1.053-7.009
			c0.048-2.366-0.388-4.798-1.642-6.805c-0.013-0.02-0.025-0.04-0.038-0.06c-1.613-2.531-4.672-3.749-7.636-3.278L312.982,318.154z"
			/>
		<g>
			<path style="fill:#263238;" d="M320.892,313.176c1.789-0.681,3.227-2.174,3.761-3.923c0.571-1.87,0.169-3.867,0.716-5.74
				c0.271-0.928,0.757-1.706,0.971-2.667c0.229-1.027,0.339-2.08,0.245-3.128c-0.304-3.389-2.784-6.412-5.976-7.99
				c-3.193-1.578-8.397-2.389-11.937-1.752c-1.625,0.292-3.306,0.818-4.373,2.012c-1.067,1.193-1.08,3.359,0.197,4.351
				c-0.793,0.568-1.317,1.459-1.409,2.394c-0.092,0.935,0.7,2.436,1.989,2.776c1.163,11.132,6.242,13.374,8.887,14.335
				C316.609,314.804,318.459,315.518,320.892,313.176z"/>
			<polygon style="fill:#FFA8A7;" points="304.422,303.246 302.501,306.585 304.605,307.362 			"/>
			<path style="fill:#FFA8A7;" d="M304.205,301.758c0.309-2.929,1.166-5.69,3.073-7.09c-0.316,1.838,0.037,4.446,1.891,5.848
				c-0.226,1.854-0.316,2.533,0.305,4.633c0.186-0.965,0.693-1.85,1.419-2.511c0.727-0.662,1.825-0.968,2.729-0.582
				c0.638,0.272,1.112,0.851,1.372,1.495c0.507,1.255,0.216,2.794-0.714,3.777c-0.93,0.983-2.451,1.359-3.732,0.922
				c0.432,2.615,2.664,4.746,5.252,5.32c1.695,0.376,3.468,0.244,5.092-0.391l0.794,3.853c-3.214,3.428-8.704,1.125-8.704,1.125
				l-0.723-3.883c-6.32,0.375-6.91,0.268-7.606-3.214C304.271,309.145,303.829,305.327,304.205,301.758z"/>
			<g>
				<path style="fill:#BA68C8;" d="M323.877,295.705l-0.624-2.442c-0.23-0.396-0.817-0.565-1.24-0.387
					c-0.422,0.177-0.704,0.608-0.785,1.059c-0.082,0.451,0.013,0.918,0.177,1.345c0.138,0.359,0.33,0.706,0.622,0.956
					c0.292,0.249,0.697,0.388,1.069,0.293C323.469,296.434,323.911,296.088,323.877,295.705z"/>
				<path style="fill:#263238;" d="M323.388,295.785c1.851-0.443,3.829,0.713,4.757,2.375c0.928,1.662,0.962,3.695,0.571,5.558
					c-0.588,2.802-2.047,5.328-3.302,7.902c-1.255,2.573-2.342,5.366-2.097,8.219c0.323,3.749,3.329,6.705,6.967,7.668
					c-0.971-0.744-1.37-1.828-1.445-3.049c0.949,1.413,2.518,2.393,4.204,2.627c1.686,0.234,3.353-0.277,4.652-1.378
					c-1.481,0.071-2.907-0.555-3.999-1.557c0.952,0.22,2.047-0.005,2.937-0.408c-3.045-1.716-4.068-5.704-3.692-9.179
					c0.376-3.475,1.819-6.744,2.473-10.177c0.654-3.433,0.333-7.401-2.214-9.794c-1.983-1.863-4.955-2.367-7.639-1.919
					c-0.882,0.147-1.739,0.385-2.578,0.685C321.708,293.677,322.466,295.968,323.388,295.785z"/>
			</g>
		</g>
		<g>
			<g>
				<polygon style="fill:#BA68C8;" points="266.439,308.326 275.663,335.057 294.734,324.475 285.612,298.039 				"/>
				<polygon style="opacity:0.3;" points="266.439,308.326 275.663,335.057 294.734,324.475 285.612,298.039 				"/>
				<polygon style="opacity:0.2;fill:#FFFFFF;" points="266.439,308.326 275.663,335.057 294.734,324.475 285.612,298.039 				"/>
				<polygon style="fill:#FFFFFF;" points="291.901,323.39 284.307,301.377 269.281,309.438 276.957,331.682 				"/>
				<g>
					<polygon style="fill:#455A64;" points="281.658,303.011 273.309,307.391 272.946,306.278 274.567,304.85 279.141,302.551 
						281.222,302.164 					"/>
					<polygon style="fill:#37474F;" points="279.141,302.551 278.78,301.705 274.314,304.101 274.567,304.85 					"/>
					<polygon style="fill:#455A64;" points="281.373,300.314 271.277,305.73 270.84,304.681 281.029,299.333 					"/>
					<path style="fill:#37474F;" d="M278.642,300.585c-0.881-2.777-6.158-0.163-5.129,2.692L278.642,300.585z"/>
				</g>
				<path style="fill:#FFA8A7;" d="M302.501,321.839l-13.438,17.206l-12.234-12.035c-0.683-0.672-1.118-1.558-1.24-2.509
					c-0.584-4.567-1.85-7.824-3.475-7.252c-1.02,0.359,0.287,4.806,0.287,4.806l-1.525-0.871l-1.779-5.155h-0.804
					c-0.866,0-1.637,0.549-1.92,1.367l-0.763,2.201c-0.927,2.672-0.01,5.637,2.264,7.319l2.685,1.986
					c0.402,0.298,0.749,0.667,1.024,1.085c5.276,8.006,10.919,14.837,14.348,18.341c1.226,1.252,3.167,1.441,4.629,0.475
					c5.198-3.435,15.787-13.362,21.225-20.284c2.133-2.715,1.404-6.684-1.559-8.456l0,0
					C307.592,318.489,304.184,319.272,302.501,321.839z"/>
			</g>
		</g>
	</g>
</g>
<g id="Character_1">
	<g>
		<g>
			<g>
				<path style="fill:#BA68C8;" d="M210.65,173.764c2.922-1.687,5.295-0.335,5.304,3.023l0.177,62.27
					c0.009,3.352-2.348,7.44-5.27,9.127l-74.701,43.129c-2.922,1.687-5.295,0.329-5.304-3.023l-0.176-62.27
					c-0.01-3.357,2.348-7.44,5.27-9.127L210.65,173.764z"/>
			</g>
			<g style="opacity:0.8;">
				<path style="fill:#FFFFFF;" d="M210.65,173.764c2.922-1.687,5.295-0.335,5.304,3.023l0.177,62.27
					c0.009,3.352-2.348,7.44-5.27,9.127l-74.701,43.129c-2.922,1.687-5.295,0.329-5.304-3.023l-0.176-62.27
					c-0.01-3.357,2.348-7.44,5.27-9.127L210.65,173.764z"/>
			</g>
			<g>
				<path style="fill:#FFFFFF;" d="M211.208,177.861c0.162-0.093,0.323-0.1,0.426,0.001c0.177,0.172,0.126,0.579-0.107,0.916
					l-37.232,53.246l37.412,10.15c0.234,0.062,0.287,0.415,0.112,0.784c-0.104,0.225-0.261,0.397-0.423,0.491
					c-0.11,0.063-0.219,0.088-0.314,0.066l-37.674-10.223l-37.493,53.621c-0.095,0.132-0.204,0.233-0.314,0.296
					c-0.162,0.093-0.324,0.105-0.429,0.001c-0.172-0.169-0.126-0.579,0.112-0.914l37.232-53.246l-37.412-10.15
					c-0.239-0.065-0.287-0.415-0.117-0.787c0.105-0.221,0.266-0.4,0.429-0.494c0.109-0.063,0.219-0.088,0.314-0.061l37.674,10.223
					l37.493-53.621C210.989,178.027,211.099,177.924,211.208,177.861z"/>
			</g>
		</g>
		<g>
			<path style="fill:#AB6060;" d="M212.255,218.454l3.84,8.144l-6.818,20.679l-15.051,9.769l5.384,12.738l15.375-15.022
				c1.839-1.796,3.022-4.157,3.361-6.705l2.892-21.738l-3.288-12.294l-1.896-1.818l0.058,7.792l-1.918-2.684
				c-0.357-0.499-1.047-0.622-1.554-0.276l0,0C212.181,217.354,212.019,217.953,212.255,218.454z"/>
			<path style="fill:#37474F;" d="M193.435,254.974l12.291-6.188c7.195,1.822,7.384,9.426,7.384,9.426l-12.715,11.573
				L193.435,254.974z"/>
			<g>
				<g>
					<g>
						<g>
							<path style="fill:#263238;" d="M180.464,395.421c-0.509,1.603-2.267,2.52-3.944,2.654c-1.676,0.133-3.333-0.338-4.988-0.638
								c-3.705-0.671-7.279-0.006-10.974-0.093c-1.213-0.029-2.436-0.084-3.609-0.392c-1.173-0.308-2.306-0.889-3.086-1.818
								c-0.461-0.548-0.776-1.23-0.888-1.934c-0.182,1.058,0.192,2.189,0.888,3.018c0.78,0.929,1.912,1.51,3.086,1.818
								c1.173,0.308,2.397,0.364,3.609,0.392c3.695,0.087,7.268-0.579,10.974,0.093c1.655,0.3,3.311,0.771,4.988,0.638
								c1.677-0.133,3.435-1.051,3.944-2.654c0.175-0.552,0.186-1.129,0.129-1.708C180.567,395.007,180.529,395.216,180.464,395.421
								z"/>
							<path style="fill:#BA68C8;" d="M180.369,392.35c-0.227-1.122-0.454-2.245-0.681-3.367c-0.12-0.593-0.246-1.202-0.571-1.713
								c-0.324-0.512-0.896-0.912-1.499-0.857c-2.029-0.27-4.882-1.004-6.569,0.156c-2.64,1.817-5.873,2.756-9.075,2.635
								c-1.676-0.063-3.355-0.407-5.02-0.202c-1.665,0.204-3.398,1.131-3.893,2.734c-0.146,0.474-0.164,0.973-0.086,1.462
								c0.112,0.704,0.428,1.386,0.888,1.934c0.78,0.929,1.912,1.51,3.086,1.818c1.173,0.308,2.397,0.364,3.609,0.392
								c3.695,0.087,7.268-0.579,10.974,0.093c1.655,0.3,3.311,0.771,4.988,0.638c1.677-0.133,3.435-1.051,3.944-2.654
								c0.065-0.205,0.103-0.414,0.129-0.624C180.689,393.992,180.532,393.155,180.369,392.35z"/>
						</g>
						<path style="fill:#FFA8A7;" d="M170.558,383.043l-0.145,4.386c-0.031,0.932,0.68,1.732,1.611,1.793
							c1.506,0.1,2.973,0.094,4.42-0.043c1.231-0.116,2.194-1.115,2.26-2.349l0.174-3.239L170.558,383.043z"/>
						<path style="opacity:0.4;" d="M170.558,383.043l-0.145,4.386c-0.031,0.932,0.68,1.732,1.611,1.793
							c1.506,0.1,2.973,0.094,4.42-0.043c1.231-0.116,2.194-1.115,2.26-2.349l0.174-3.239L170.558,383.043z"/>
					</g>
					<g>
						<g>
							<path style="fill:#263238;" d="M199.194,380.71c-0.046,0.652-0.201,1.294-0.587,1.812c-0.484,0.65-1.273,1.016-2.07,1.165
								c-1.925,0.361-4.024-0.504-5.137-2.115c-0.551-0.798-0.865-1.738-1.387-2.556c-0.724-1.135-1.812-1.982-2.88-2.801
								c-1.068-0.819-2.161-1.657-2.902-2.781c-0.717-1.088-1.046-2.512-0.555-3.71c-0.102,0.146-0.196,0.301-0.272,0.467
								c-0.578,1.259-0.235,2.792,0.521,3.951c0.756,1.159,1.871,2.022,2.961,2.867c1.09,0.845,2.2,1.717,2.939,2.887
								c0.533,0.843,0.853,1.812,1.416,2.635c1.136,1.661,3.278,2.552,5.242,2.18c0.813-0.154,1.618-0.531,2.112-1.201
								c0.521-0.707,0.631-1.639,0.614-2.52C199.206,380.896,199.198,380.803,199.194,380.71z"/>
							<path style="fill:#BA68C8;" d="M197.863,375.204c-1.333-2.337-4.083-4.037-6.204-5.692c-1.204-0.939-2.589-1.741-4.111-1.867
								c-1.521-0.126-3.188,0.571-3.829,1.957c-0.018,0.04-0.028,0.082-0.044,0.122c-0.491,1.198-0.162,2.623,0.555,3.71
								c0.741,1.124,1.834,1.962,2.902,2.781c1.069,0.819,2.156,1.666,2.88,2.801c0.522,0.818,0.836,1.758,1.387,2.556
								c1.113,1.611,3.212,2.475,5.137,2.115c0.797-0.149,1.586-0.515,2.07-1.165c0.386-0.518,0.541-1.16,0.587-1.812
								c0.015-0.211,0.018-0.423,0.014-0.633C199.174,378.375,198.707,376.683,197.863,375.204z"/>
						</g>
						<path style="fill:#FFA8A7;" d="M192.082,373.178v3.986c3.637,1.52,6.203-0.274,6.203-0.274l0.374-3.587L192.082,373.178z"/>
						<path style="opacity:0.4;" d="M192.082,373.178v3.986c3.637,1.52,6.203-0.274,6.203-0.274l0.374-3.587L192.082,373.178z"/>
					</g>
					<path style="fill:#37474F;" d="M199.705,300.858c1.196,3.587,0.827,22.393,0.129,38.735c1.14,7.954,1.102,25.185-0.393,37.641
						c0,0-4.158,2.293-9.939,0.198l-3.524-37.811l-0.816-19.431c0,0-1.476,17.239-3.17,28.3c0.614,8.119-0.727,23.644-1.922,40.198
						c0,0-6.396,3.733-12.746-0.354c-2.226-36.604,1.387-73.677,2.123-85.681L199.705,300.858z"/>
					<path style="opacity:0.3;" d="M185.659,332.023l-0.665-15.847c4.096,0,7.896-3.061,10.786-5.964
						c-2.777,4.946-8.158,7.138-8.158,7.138L185.659,332.023z"/>
				</g>
				<path style="fill:#455A64;" d="M168.822,272.588v31.035c18.274,7.657,30.116,0.74,31.724-2.858
					c-0.842-12.634,2.144-27.411,1.914-33.689c-0.23-6.279-1-13.352-10.734-11.933l-10.352,1.01l-5.252,1.276L168.822,272.588z"/>
				<g>
					<g>
						<path style="fill:#AB6060;" d="M159.122,270.902l-3.487,3.631l-19.443-7.669c-0.053-1.531-0.09-3.969-0.366-5.321
							c-0.113-0.555-0.421-1.037-0.988-1.037l0,0c-0.382,0-0.924,0.62-0.989,1.626c-0.012,0.193-0.038,1.295-0.068,1.631
							c-0.06,0.672-0.897,0.942-1.337,0.431c-0.504-0.587-0.995-1.192-1.069-1.401l-0.303-0.859
							c-0.203-0.575-0.306-2.148-0.306-2.758c0,0-2.493,0.702-3.027,4.126c-0.166,1.064-0.497,3.142-0.157,4.305
							c0.597,2.042,2.388,2.922,5.467,3.928c6.143,4.281,14.718,9.293,19.334,11.928c1.985,1.133,4.435,1.043,6.336-0.227
							l7.377-4.929L159.122,270.902z"/>
						<path style="fill:#873E3E;" d="M153.497,278.987c0,0,0.573-2.83,2.138-4.454l-1.665-0.657
							C152.875,274.814,152.546,277.285,153.497,278.987z"/>
					</g>
					<path style="fill:#37474F;" d="M158.262,270.926l9.813-9.653c2.185-2.15,5.023-3.511,8.068-3.869l0.176-0.021
						c4.156,9.1-1.337,13.543-1.337,13.543l-9.124,8.384C160.053,276.228,158.262,270.926,158.262,270.926z"/>
				</g>
				<g>
					<path style="fill:#263238;" d="M191.213,249.463c3.305-3.012,5.646-7.147,6.168-11.588c0.144-1.229,0.155-2.53-0.398-3.636
						c-0.553-1.106-1.966-2.268-3.168-1.974c0.066-1.267-0.987-3.277-2.084-3.913c-1.097-0.637-2.409-0.798-3.677-0.778
						c-1.268,0.02-2.531,0.207-3.799,0.21c-2.006,0.004-6.552-0.567-8.35-1.455c0.021,0.973,0.332,2.549,1.009,3.248
						c-1.303-0.241-2.468-1.381-3.506-2.204c-0.182,1.211,1.059,3.917,2.081,4.592c-1.76-0.168-2.085,2.872,0.921,2.872
						C177.73,248.032,186.848,253.157,191.213,249.463z"/>
					<path style="fill:#873E3E;" d="M175.223,240.154l-1.635,2.841l1.618,0.598C175.153,242.447,175.158,241.3,175.223,240.154z"/>
					<path style="fill:#AB6060;" d="M176.409,234.837c-0.493,1.557-1.084,3.529-1.186,5.317c-0.065,1.146-0.07,2.293-0.017,3.439
						c0.074,1.612,0.251,3.22,0.561,4.804c0.167,0.856,0.385,1.741,0.947,2.409c0.635,0.755,1.634,1.126,2.617,1.204
						c0.983,0.079,1.966-0.103,2.936-0.283v4.661c3.538,0.834,6.468,1.203,9.241-0.932l-0.295-5.994
						c-1.485,0.243-3.057,0.044-4.979-0.786c-2.444-1.318-3.128-3.424-2.784-4.602c0.361,0.594,1.234,0.826,1.911,0.672
						c0.677-0.154,1.239-0.659,1.586-1.26c0.348-0.602,0.504-1.295,0.592-1.984c0.107-0.839,0.104-1.751-0.363-2.458
						c-0.573-0.867-1.763-1.2-2.768-0.933c-1.005,0.267-1.819,1.042-2.33,1.948c-0.162,0.286-0.296,0.585-0.41,0.892
						c-0.207,0.558-1.018,0.456-1.073-0.137c-0.122-1.332,0.113-2.698,0.701-3.9c-0.436,0.189-0.831,0.319-1.306,0.303
						c-0.475-0.016-0.96-0.207-1.251-0.583c-0.291-0.376-0.34-0.948-0.049-1.324C177.332,235.61,176.409,234.837,176.409,234.837z"
						/>
				</g>
			</g>
			<path style="fill:#873E3E;" d="M209.277,247.278c2.168-0.063,3.456,1.542,3.833,2.562c-0.157-4.447-2.821-3.732-3.563-3.383
				L209.277,247.278z"/>
		</g>
	</g>
</g>
</svg>
